<svg width="862" height="1270" viewBox="0 0 862 1270" fill="none" xmlns="http://www.w3.org/2000/svg">
<g filter="url(#filter0_dddd_19_3058)">
<g clip-path="url(#clip0_19_3058)">
<rect x="147.203" y="27" width="567" height="862" rx="10" fill="black"/>
<path d="M211.503 124.176V122.816H210.095V120.624H212.127V122H215.743V120.064H211.503V118.704H210.095V115.168H211.503V113.792H216.367V115.168H217.791V117.344H215.743V115.984H212.127V117.904H216.367V119.248H217.791V122.816H216.367V124.176H211.503ZM223.839 124.176V115.984H223.055V117.344H221.023V115.168H222.431V113.792H227.295V115.168H228.719V117.344H226.671V115.984H225.887V124.176H223.839ZM231.623 124.176V115.168H233.031V113.792H237.895V115.168H239.319V120.064H237.895V121.44H237.207V122H238.599V124.176H236.583V122.816H235.143V121.44H233.655V124.176H231.623ZM233.655 119.248H237.271V115.984H233.655V119.248Z" fill="#78E846"/>
<path d="M227.324 143.606H222.05V141.845H227.324V143.606ZM232.609 168.249H229.086V166.487H230.847V161.202H229.086V159.44H227.324V157.689H223.811V155.928H220.288V154.166H218.526V152.404H216.764V145.368H218.526V143.606H222.05V145.368H220.288V150.643H222.05V152.404H224.692V154.166H227.324V152.404H229.086V155.928H230.847V157.689H232.609V159.44H234.371V166.487H232.609V168.249ZM230.847 152.404H229.086V145.368H227.324V143.606H230.847V145.368H232.609V150.643H230.847V152.404ZM220.288 157.689H218.526V155.928H220.288V157.689ZM229.086 170H220.288V168.249H216.764V166.487H215.013V159.44H216.764V157.689H218.526V164.726H220.288V166.487H222.05V168.249H229.086V170Z" fill="#78E846"/>
<path d="M209.618 228.509V218.125H214.482V219.501H215.89V220.861H217.314V225.773H215.89V227.149H214.482V228.509H209.618ZM211.65 226.333H213.858V224.957H215.266V221.677H213.858V220.317H211.65V226.333ZM222.267 228.509V227.149H220.859V219.501H222.267V218.125H227.131V219.501H228.555V221.677H226.507V220.317H222.891V222.237H225.723V224.397H222.891V226.333H226.507V224.957H228.555V227.149H227.131V228.509H222.267ZM232.099 228.509V226.333H233.507V223.581H234.915V223.037H233.507V220.317H232.099V218.125H234.131V219.501H235.539V222.237H236.339V219.501H237.747V218.125H239.795V220.317H238.371V223.037H236.963V223.581H238.371V226.333H239.795V228.509H237.747V227.149H236.339V224.397H235.539V227.149H234.131V228.509H232.099Z" fill="#78E846"/>
<path d="M232.609 253.214H230.847V249.701H216.764V251.463H215.013V247.94H216.764V246.178H234.371V249.701H232.609V253.214ZM230.847 256.738H229.086V253.214H230.847V256.738ZM229.086 260.261H227.324V256.738H229.086V260.261ZM227.324 263.774H225.573V260.261H227.324V263.774ZM225.573 267.297H223.811V263.774H225.573V267.297ZM223.811 270.821H222.05V267.297H223.811V270.821ZM222.05 274.333H220.288V270.821H222.05V274.333ZM220.288 277.846H218.526V274.333H220.288V277.846Z" fill="#78E846"/>
<path d="M211.274 332.843V330.667H212.682V324.651H211.274V322.459H216.138V324.651H214.714V330.667H216.138V332.843H211.274ZM219.687 332.843V322.459H221.719V323.835H223.127V325.195H224.551V329.291H225.335V322.459H227.383V332.843H225.335V331.483H223.927V330.107H222.503V326.011H221.719V332.843H219.687ZM233.259 332.843V324.651H232.475V326.011H230.443V323.835H231.851V322.459H236.715V323.835H238.139V326.011H236.091V324.651H235.307V332.843H233.259Z" fill="#78E846"/>
<path d="M232.609 346.988H227.324V345.237H232.609V346.988ZM229.086 378.667H220.288V376.916H218.526V375.154H216.764V371.63H215.013V361.071H216.764V355.797H218.526V352.273H220.288V350.511H222.05V348.75H223.811V346.988H227.324V348.75H225.573V350.511H223.811V352.273H222.05V355.797H220.288V361.071H218.526V371.63H220.288V375.154H222.05V376.916H227.324V375.154H229.086V371.63H230.847V366.356H229.086V362.833H227.324V361.071H223.811V359.309H229.086V361.071H230.847V362.833H232.609V366.356H234.371V371.63H232.609V375.154H230.847V376.916H229.086V378.667ZM223.811 362.833H222.05V361.071H223.811V362.833Z" fill="#78E846"/>
<path d="M211.274 437.176V435H212.682V428.984H211.274V426.792H216.138V428.984H214.714V435H216.138V437.176H211.274ZM219.687 437.176V426.792H221.719V428.168H223.127V429.528H224.551V433.624H225.335V426.792H227.383V437.176H225.335V435.816H223.927V434.44H222.503V430.344H221.719V437.176H219.687ZM233.259 437.176V428.984H232.475V430.344H230.443V428.168H231.851V426.792H236.715V428.168H238.139V430.344H236.091V428.984H235.307V437.176H233.259Z" fill="#78E846"/>
<path d="M231.728 458.368H219.407V454.845H231.728V458.368ZM219.407 461.881H217.645V458.368H219.407V461.881ZM233.49 477.726H231.728V472.44H229.967V470.689H228.205V468.928H222.93V467.166H215.894V461.881H217.645V463.643H222.93V465.404H228.205V467.166H231.728V468.928H233.49V477.726ZM231.728 481.249H229.967V477.726H231.728V481.249ZM229.967 483H226.454V481.249H229.967V483ZM226.454 484.751H222.93V483H226.454V484.751ZM222.93 486.513H215.894V484.751H222.93V486.513Z" fill="#78E846"/>
<path d="M211.026 541.509V540.149H209.618V531.125H211.65V539.333H212.434V536.581H213.858V532.501H215.89V536.581H217.314V539.333H218.114V531.125H220.13V540.149H218.738V541.509H216.69V540.149H215.266V537.397H214.482V540.149H213.058V541.509H211.026ZM223.687 541.509V539.333H225.095V533.317H223.687V531.125H228.551V533.317H227.127V539.333H228.551V541.509H223.687ZM233.507 541.509V540.149H232.099V537.957H234.131V539.333H237.747V537.397H233.507V536.037H232.099V532.501H233.507V531.125H238.371V532.501H239.795V534.677H237.747V533.317H234.131V535.237H238.371V536.581H239.795V540.149H238.371V541.509H233.507Z" fill="#78E846"/>
<path d="M233.49 559.178H231.728V557.416H233.49V559.178ZM231.728 560.94H229.967V559.178H231.728V560.94ZM229.967 562.701H228.205V560.94H229.967V562.701ZM228.205 564.463H226.443V562.701H228.205V564.463ZM226.443 566.214H224.692V564.463H226.443V566.214ZM235.252 587.333H224.692V585.582H228.205V578.535H214.133V575.023H215.884V576.774H228.205V567.976H229.967V566.214H231.728V576.774H235.252V578.535H231.728V585.582H235.252V587.333ZM224.692 567.976H222.93V566.214H224.692V567.976ZM222.93 569.738H221.169V567.976H222.93V569.738ZM221.169 571.499H219.407V569.738H221.169V571.499ZM219.407 573.261H217.645V571.499H219.407V573.261ZM217.645 575.023H215.884V573.261H217.645V575.023Z" fill="#78E846"/>
<path d="M211.026 645.843V644.483H209.618V636.835H211.026V635.459H215.89V636.835H217.314V640.371H215.266V637.651H211.65V643.667H215.266V640.915H217.314V644.483H215.89V645.843H211.026ZM220.859 645.843V635.459H222.891V639.571H223.675V638.195H225.723V639.571H226.507V635.459H228.555V645.843H226.507V641.731H222.891V645.843H220.859ZM232.099 645.843V638.195H233.507V636.835H234.915V635.459H236.963V636.835H238.371V638.195H239.795V645.843H237.747V643.107H234.131V645.843H232.099ZM234.131 640.915H237.747V639.011H236.339V637.651H235.539V639.011H234.131V640.915Z" fill="#78E846"/>
<path d="M228.205 695.179H224.692V693.418H226.454V691.667H228.205V688.154H229.967V681.107H228.205V679.356H226.454V677.594H219.407V675.833H221.169V674.071H222.93V672.309H224.692V670.547H226.454V667.035H224.692V665.273H219.407V663.511H228.205V665.273H229.967V670.547H228.205V672.309H226.454V674.071H224.692V675.833H229.967V677.594H231.728V679.356H233.49V688.154H231.728V691.667H229.967V693.418H228.205V695.179ZM219.407 667.035H217.645V665.273H219.407V667.035ZM217.645 668.797H215.894V667.035H217.645V668.797ZM219.407 679.356H217.645V677.594H219.407V679.356ZM224.692 696.941H217.645V695.179H215.894V691.667H219.407V693.418H221.169V695.179H224.692V696.941Z" fill="#78E846"/>
<path d="M205.406 750.176V748.816H203.998V739.792H206.03V748H209.646V746.624H211.694V748.816H210.27V750.176H205.406ZM216.646 750.176V748.816H215.238V739.792H217.27V748H220.886V739.792H222.934V748.816H221.51V750.176H216.646ZM227.887 750.176V748.816H226.479V741.168H227.887V739.792H232.751V741.168H234.175V744.704H232.127V741.984H228.511V748H232.127V745.248H234.175V748.816H232.751V750.176H227.887ZM237.72 750.176V741.168H239.128V739.792H241.16V741.984H239.752V743.904H240.536V742.528H241.96V741.168H243.368V739.792H245.416V741.984H243.992V743.344H242.584V744.704H241.16V745.248H242.584V746.624H243.992V748H245.416V750.176H243.368V748.816H241.96V747.44H240.536V746.064H239.752V750.176H237.72Z" fill="#78E846"/>
<path d="M230.858 781.928H229.096V771.368H227.345V769.606H220.299V767.845H229.096V769.606H230.858V771.368H232.62V780.166H230.858V781.928ZM220.299 771.368H218.537V769.606H220.299V771.368ZM218.537 773.13H216.786V771.368H218.537V773.13ZM229.096 783.689H227.345V781.928H229.096V783.689ZM227.345 785.44H225.584V783.689H227.345V785.44ZM225.584 787.202H223.822V785.44H225.584V787.202ZM223.822 788.964H222.06V787.202H223.822V788.964ZM222.06 790.726H220.299V788.964H222.06V790.726ZM232.62 796H215.035V794.249H216.786V792.487H218.537V790.726H220.299V792.487H232.62V790.726H234.382V794.249H232.62V796Z" fill="#78E846"/>
<path fill-rule="evenodd" clip-rule="evenodd" d="M288.525 115.514C288.525 117.912 288.467 118.034 287.253 118.174L285.98 118.32L285.855 127.689L285.73 137.057H289.649H293.568L293.707 139.717L293.845 142.378L298.24 142.513C304.602 142.71 304.717 142.658 304.717 139.611V137.095L308.534 136.96L312.351 136.826V127.573V118.32L311.079 118.174C309.865 118.034 309.806 117.912 309.806 115.514V113H299.166H288.525V115.514ZM296.39 127.597V131.554L293.961 131.414L291.532 131.274L291.398 127.457L291.263 123.641H293.827H296.39V127.597ZM307.031 127.573V131.506H304.486H301.942V127.573V123.641H304.486H307.031V127.573ZM301.479 134.281V136.595H299.166H296.852V134.281V131.968H299.166H301.479V134.281ZM285.958 139.955C285.835 140.277 285.789 146.262 285.857 153.256L285.98 165.972L295.349 166.098L304.717 166.222V163.437V160.652H298.009H291.301V150.011V139.37H288.742C287.106 139.37 286.102 139.581 285.958 139.955ZM293.82 145.051C293.691 145.387 293.644 148.463 293.716 151.885L293.845 158.107L300.438 158.235L307.031 158.364V163.432V168.499L296.505 168.624L285.98 168.748L285.842 171.408L285.703 174.068H297.755H309.806V171.554C309.806 169.156 309.865 169.034 311.079 168.894L312.351 168.748L312.478 160.767L312.604 152.787H305.885H299.166V151.643V150.499L305.758 150.371L312.351 150.242V147.467V144.691L303.203 144.565C295.958 144.466 294.006 144.567 293.82 145.051Z" fill="#78E846"/>
<path d="M338.988 124.176V122.816H337.58V113.792H339.612V122H343.228V120.624H345.276V122.816H343.852V124.176H338.988ZM350.229 124.176V122.816H348.821V115.168H350.229V113.792H355.093V115.168H356.517V117.344H354.469V115.984H350.853V117.904H353.685V120.064H350.853V122H354.469V120.624H356.517V122.816H355.093V124.176H350.229ZM362.877 124.176V122.816H361.469V120.064H360.061V113.792H362.093V119.248H363.501V122H364.301V119.248H365.709V113.792H367.757V120.064H366.333V122.816H364.925V124.176H362.877ZM372.71 124.176V122.816H371.302V115.168H372.71V113.792H377.574V115.168H378.998V117.344H376.95V115.984H373.334V117.904H376.166V120.064H373.334V122H376.95V120.624H378.998V122.816H377.574V124.176H372.71ZM383.951 124.176V122.816H382.543V113.792H384.575V122H388.191V120.624H390.239V122.816H388.815V124.176H383.951ZM401.402 124.176V115.984H400.618V117.344H398.586V115.168H399.994V113.792H402.026V115.168H403.45V124.176H401.402ZM408.407 124.176V122.816H406.999V119.248H408.407V117.904H412.647V115.984H409.031V117.344H406.999V115.168H408.407V113.792H413.271V115.168H414.695V118.704H413.271V120.064H409.031V122H412.647V120.624H414.695V122.816H413.271V124.176H408.407Z" fill="#78E846"/>
<path d="M338.284 169.64H339.964V166.28H358.444V167.96H356.764V169.64H355.084V171.32H353.404V173H338.284V169.64ZM339.964 156.2V147.8H341.644V152.84H358.444V154.52H361.804V164.6H360.124V161.24H358.444V159.56H343.324V157.88H341.644V156.2H339.964ZM341.644 147.8V146.12H343.324V147.8H341.644ZM343.324 146.12V144.44H345.004V146.12H343.324ZM345.004 144.44V142.76H346.684V141.08H348.364V139.4H351.724V141.08H356.764V142.76H360.124V144.44H358.444V146.12H356.764V147.8H355.084V146.12H350.044V144.44H345.004ZM358.444 166.28V164.6H360.124V166.28H358.444ZM360.124 141.08V139.4H361.804V141.08H360.124ZM363.469 142.76H368.509V141.08H371.869V154.52H373.549V156.2H371.869V167.96H375.229V169.64H373.549V171.32H371.869V173H368.509V171.32H365.149V167.96H366.829V144.44H363.469V142.76ZM371.869 141.08V139.4H373.549V141.08H371.869ZM373.549 154.52V152.84H375.229V151.16H378.589V149.48H380.269V151.16H381.949V154.52H383.629V164.6H381.949V166.28H380.269V167.96H378.589V156.2H376.909V154.52H373.549ZM375.229 178.04V171.32H376.909V174.68H380.269V176.36H381.949V181.4H378.589V179.72H376.909V178.04H375.229ZM376.909 171.32V167.96H378.589V171.32H376.909ZM386.13 154.52H387.81V156.2H386.13V154.52ZM387.81 154.52V152.84H391.17V151.16H394.53V152.84H397.89V154.52H396.21V169.64H397.89V171.32H396.21V173H392.85V171.32H391.17V169.64H389.49V154.52H387.81ZM389.49 146.12V141.08H391.17V139.4H394.53V141.08H396.21V144.44H394.53V147.8H391.17V146.12H389.49ZM400.403 154.52H402.083V152.84H403.763V151.16H407.123V152.84H408.803V154.52H410.483V156.2H408.803V173H403.763V156.2H400.403V154.52ZM410.483 154.52V152.84H412.163V151.16H417.203V152.84H420.563V156.2H418.883V167.96H420.563V171.32H418.883V173H415.523V171.32H413.843V156.2H412.163V154.52H410.483ZM423.085 157.88H424.765V162.92H426.445V164.6H428.125V166.28H429.805V167.96H436.525V169.64H434.845V171.32H433.165V173H428.125V171.32H426.445V169.64H424.765V167.96H423.085V157.88ZM424.765 157.88V154.52H426.445V152.84H428.125V151.16H434.845V152.84H438.205V156.2H439.885V164.6H438.205V167.96H436.525V159.56H434.845V157.88H433.165V156.2H426.445V157.88H424.765ZM440.743 142.76H445.783V141.08H449.143V166.28H450.823V167.96H454.183V169.64H452.503V171.32H450.823V173H447.463V171.32H445.783V169.64H444.103V167.96H442.423V166.28H444.103V144.44H440.743V142.76ZM449.143 141.08V139.4H450.823V141.08H449.143ZM450.823 156.2V154.52H452.503V156.2H450.823ZM452.503 154.52V152.84H454.183V151.16H455.863V149.48H457.543V151.16H459.223V152.84H460.903V162.92H459.223V166.28H457.543V167.96H454.183V166.28H455.863V156.2H454.183V154.52H452.503ZM463.403 154.52H465.083V156.2H463.403V154.52ZM465.083 154.52V152.84H468.443V151.16H471.803V152.84H475.163V154.52H473.483V169.64H475.163V171.32H473.483V173H470.123V171.32H468.443V169.64H466.763V154.52H465.083ZM466.763 146.12V141.08H468.443V139.4H471.803V141.08H473.483V144.44H471.803V147.8H468.443V146.12H466.763Z" fill="#78E846"/>
<rect x="541.703" y="113" width="91" height="61.0683" rx="6" fill="#2C1A0A"/>
<path d="M569.003 154.222H566.816V152.034H564.628V154.222H562.441H560.253H558.066V152.034V149.847H560.253V147.659H562.441V149.847H564.628H566.816H569.003V152.034H571.191V154.222H569.003ZM571.191 152.034V149.847H573.378V152.034H571.191ZM562.441 147.659V145.472H564.628V147.659H562.441ZM564.628 145.472V143.284H566.816V141.097H569.003V138.909V136.722V134.534H571.191V136.722H573.378V138.909V141.097H571.191V143.284H569.003V145.472H566.816H564.628ZM560.253 138.909H558.066V136.722V134.534H560.253V132.347H562.441H564.628H566.816H569.003V134.534H566.816H564.628V136.722H562.441V138.909H560.253ZM585.016 154.222H582.828H580.641V152.034H578.453V149.847H576.266V147.659H578.453H580.641H582.828V149.847H585.016V152.034H587.203V154.222H585.016ZM587.203 152.034V149.847H589.391V152.034H587.203ZM589.391 149.847V147.659V145.472H587.203V143.284H585.016H582.828H580.641H578.453H576.266V141.097V138.909H578.453V141.097H580.641H582.828H585.016H587.203H589.391H591.578V143.284H593.766V145.472V147.659H591.578V149.847H589.391ZM578.453 138.909V136.722V134.534V132.347H580.641H582.828H585.016H587.203H589.391H591.578H593.766V134.534V136.722H591.578H589.391H587.203H585.016H582.828H580.641V138.909H578.453ZM605.403 154.222H603.216H601.028V152.034H598.841V149.847H596.653V147.659V145.472V143.284V141.097V138.909H598.841V136.722H601.028V138.909V141.097V143.284V145.472V147.659H603.216V149.847H605.403V152.034H607.591V154.222H605.403ZM607.591 152.034V149.847H609.778V152.034H607.591ZM609.778 149.847V147.659V145.472V143.284V141.097V138.909H607.591V136.722H605.403V134.534H603.216V136.722H601.028V134.534H603.216V132.347H605.403H607.591H609.778V134.534H611.966V136.722H614.153V138.909V141.097V143.284V145.472V147.659H611.966V149.847H609.778Z" fill="#E8A746"/>
<rect width="41" height="16" transform="translate(602.099 104.068)" fill="#E8A746"/>
<path d="M608.126 116.2V115.18H607.07V109.444H608.126V108.412H611.774V109.444H612.842V112.096H611.306V110.056H608.594V114.568H611.306V114.148H610.25V113.116H609.182V111.496H610.718V112.504H612.842V115.18H611.774V116.2H608.126ZM616.556 116.2V115.18H615.5V109.444H616.556V108.412H620.204V109.444H621.272V115.18H620.204V116.2H616.556ZM617.024 114.568H619.736V110.056H617.024V114.568ZM624.987 116.2V115.18H623.931V108.412H625.455V114.568H628.167V113.536H629.703V115.18H628.635V116.2H624.987ZM632.361 116.2V108.412H636.009V109.444H637.065V110.464H638.133V114.148H637.065V115.18H636.009V116.2H632.361ZM633.885 114.568H635.541V113.536H636.597V111.076H635.541V110.056H633.885V114.568Z" fill="black"/>
<path d="M285.703 234.068H628.703" stroke="#171D10" stroke-width="9" stroke-linecap="square" stroke-linejoin="round" stroke-dasharray="42 4"/>
<path d="M285.703 234.068H449.703" stroke="#78E846" stroke-width="9" stroke-linecap="square" stroke-linejoin="round" stroke-dasharray="42 4"/>
<path d="M288.087 266.244V264.884H286.679V262.692H288.711V264.068H292.327V263.508H289.495V262.132H288.087V260.772H286.679V257.236H288.087V255.86H292.951V257.236H294.375V260.772H292.327V258.052H288.711V259.972H290.119V261.316H292.951V262.692H294.375V264.884H292.951V266.244H288.087ZM299.328 266.244V264.884H297.92V257.236H299.328V255.86H304.192V257.236H305.616V264.884H304.192V266.244H299.328ZM299.952 264.068H303.568V258.052H299.952V264.068ZM309.096 266.26L314.184 255.972H316.04L310.952 266.26H309.096ZM322.342 266.244V258.052H321.558V259.412H319.526V257.236H320.934V255.86H322.966V257.236H324.39V266.244H322.342ZM329.346 266.244V264.884H327.938V257.236H329.346V255.86H334.21V257.236H335.634V264.884H334.21V266.244H329.346ZM329.97 264.068H333.586V258.052H329.97V264.068ZM340.587 266.244V264.884H339.179V257.236H340.587V255.86H345.451V257.236H346.875V264.884H345.451V266.244H340.587ZM341.211 264.068H344.827V258.052H341.211V264.068ZM355.223 266.244V255.86H357.255V259.972H358.039V258.596H360.087V259.972H360.871V255.86H362.919V266.244H360.871V262.132H357.255V266.244H355.223ZM366.463 266.244V257.236H367.871V255.86H372.735V257.236H374.159V262.132H372.735V263.508H368.495V266.244H366.463ZM368.495 261.316H372.111V258.052H368.495V261.316Z" fill="#78E846"/>
<path d="M286.179 328.244V326.068H287.587V320.052H286.179V317.86H291.043V320.052H289.619V326.068H291.043V328.244H286.179ZM294.591 328.244V317.86H296.623V319.236H298.031V320.596H299.455V324.692H300.239V317.86H302.287V328.244H300.239V326.884H298.831V325.508H297.407V321.412H296.623V328.244H294.591ZM308.648 328.244V326.884H307.24V324.132H305.832V317.86H307.864V323.316H309.272V326.068H310.072V323.316H311.48V317.86H313.528V324.132H312.104V326.884H310.696V328.244H308.648ZM318.481 328.244V326.884H317.073V319.236H318.481V317.86H323.345V319.236H324.769V321.412H322.721V320.052H319.105V321.972H321.937V324.132H319.105V326.068H322.721V324.692H324.769V326.884H323.345V328.244H318.481ZM328.313 328.244V317.86H330.345V319.236H331.753V320.596H333.177V324.692H333.961V317.86H336.009V328.244H333.961V326.884H332.553V325.508H331.129V321.412H330.345V328.244H328.313ZM341.886 328.244V320.052H341.102V321.412H339.07V319.236H340.478V317.86H345.342V319.236H346.766V321.412H344.718V320.052H343.934V328.244H341.886ZM351.234 328.244V326.884H349.826V319.236H351.234V317.86H356.098V319.236H357.522V326.884H356.098V328.244H351.234ZM351.858 326.068H355.474V320.052H351.858V326.068ZM361.066 328.244V319.236H362.474V317.86H367.338V319.236H368.762V324.132H367.338V325.508H366.65V326.068H368.042V328.244H366.026V326.884H364.586V325.508H363.098V328.244H361.066ZM363.098 323.316H366.714V320.052H363.098V323.316ZM375.123 328.244V322.772H373.715V321.412H372.307V317.86H374.339V320.596H375.747V321.972H376.547V320.596H377.955V317.86H380.003V321.412H378.579V322.772H377.171V328.244H375.123Z" fill="#78E846"/>
<rect x="285.703" y="357.568" width="71" height="71" rx="5.5" stroke="#2B5418"/>
<g clip-path="url(#clip1_19_3058)">
<path fill-rule="evenodd" clip-rule="evenodd" d="M306.842 403.13V405.44H309.152V410.065H302.217V403.129L306.842 403.13ZM304.531 407.755H306.842L306.84 407.752V405.443H304.531V407.755Z" fill="#78E846"/>
<path d="M311.466 403.129V405.442H309.155V403.129H311.466Z" fill="#78E846"/>
<path d="M309.154 389.254H311.464V391.567H313.776V393.879H316.086V396.192H318.398L318.399 396.19V398.502H320.709V396.192H323.021V398.504H320.71V400.815H323.021V403.127H325.332V405.44H318.398V403.127H316.086V400.815H313.776V398.502H311.464V396.19H309.154V393.877H306.842V386.942H309.154V389.254Z" fill="#78E846"/>
<path d="M309.155 403.129L306.842 403.13V400.817H309.154L309.155 403.129Z" fill="#78E846"/>
<path d="M313.779 403.129H311.466L311.467 400.817H313.779V403.129Z" fill="#78E846"/>
<path d="M311.467 400.817H309.154L309.155 398.504H311.466L311.467 400.817Z" fill="#78E846"/>
<path d="M325.333 396.192H323.021L323.022 393.879H325.333V396.192Z" fill="#78E846"/>
<path d="M320.708 393.879H318.397V391.567H320.708V393.879Z" fill="#78E846"/>
<path d="M327.646 393.879H325.333L325.334 391.567H327.646V393.879Z" fill="#78E846"/>
<path d="M316.091 391.567H313.78V389.254H316.091V391.567Z" fill="#78E846"/>
<path d="M323.021 391.567H320.708L320.709 389.254H323.021V391.567Z" fill="#78E846"/>
<path d="M329.958 391.567H327.646L327.647 389.254H329.958V391.567Z" fill="#78E846"/>
<path d="M320.708 386.942H318.404V389.254H316.091L316.092 386.942H318.397V384.629H320.708V386.942Z" fill="#78E846"/>
<path d="M325.333 389.254H323.021L323.022 386.942H325.333V389.254Z" fill="#78E846"/>
<path d="M332.271 389.254H329.958L329.959 386.942H332.271V389.254Z" fill="#78E846"/>
<path d="M327.646 386.942H325.333L325.334 384.629H327.646V386.942Z" fill="#78E846"/>
<path d="M334.583 386.942H332.271L332.272 384.629H334.583V386.942Z" fill="#78E846"/>
<path d="M323.021 384.629H320.708L320.709 382.317H323.021V384.629Z" fill="#78E846"/>
<path d="M329.958 384.629H327.646L327.647 382.317H329.958V384.629Z" fill="#78E846"/>
<path d="M339.205 382.317H336.896V384.629H334.583L334.584 382.317H336.894V377.692H334.583V380.004H332.272V377.692H334.583L334.582 375.379H329.959V373.067H339.204L339.205 382.317Z" fill="#78E846"/>
<path d="M332.271 382.317H329.958L329.959 380.004H332.272L332.271 382.317Z" fill="#78E846"/>
<path d="M325.333 382.315H323.022V380.002H325.333V382.315Z" fill="#78E846"/>
<path d="M327.646 380.004H325.334V377.692H327.646V380.004Z" fill="#78E846"/>
<path d="M329.958 377.692H327.646L327.647 375.379H329.959L329.958 377.692Z" fill="#78E846"/>
</g>
<path d="M285.996 452.211V450.443H287.14V445.555H285.996V443.774H289.948V445.555H288.791V450.443H289.948V452.211H285.996ZM292.831 452.211V444.892H293.975V443.774H297.927V444.892H299.084V448.87H297.927V449.988H297.368V450.443H298.499V452.211H296.861V451.106H295.691V449.988H294.482V452.211H292.831ZM294.482 448.207H297.42V445.555H294.482V448.207ZM303.108 452.211V451.106H301.964V444.892H303.108V443.774H307.06V444.892H308.217V451.106H307.06V452.211H303.108ZM303.615 450.443H306.553V445.555H303.615V450.443ZM311.097 452.211V443.774H312.748V444.892H313.892V445.997H315.049V449.325H315.686V443.774H317.35V452.211H315.686V451.106H314.542V449.988H313.385V446.66H312.748V452.211H311.097ZM287.14 467.211V466.106H285.996V464.325H287.647V465.443H290.585V463.87H287.14V462.765H285.996V459.892H287.14V458.774H291.092V459.892H292.249V461.66H290.585V460.555H287.647V462.115H291.092V463.207H292.249V466.106H291.092V467.211H287.14ZM296.273 467.211V466.106H295.129V458.774H296.78V465.443H297.417V463.207H298.574V459.892H300.225V463.207H301.382V465.443H302.032V458.774H303.67V466.106H302.539V467.211H300.875V466.106H299.718V463.87H299.081V466.106H297.924V467.211H296.273ZM307.704 467.211V466.106H306.56V459.892H307.704V458.774H311.656V459.892H312.813V466.106H311.656V467.211H307.704ZM308.211 465.443H311.149V460.555H308.211V465.443ZM315.693 467.211V459.892H316.837V458.774H320.789V459.892H321.946V463.87H320.789V464.988H320.23V465.443H321.361V467.211H319.723V466.106H318.553V464.988H317.344V467.211H315.693ZM317.344 463.207H320.282V460.555H317.344V463.207ZM324.826 467.211V458.774H328.778V459.892H329.922V460.997H331.079V464.988H329.922V466.106H328.778V467.211H324.826ZM326.477 465.443H328.271V464.325H329.415V461.66H328.271V460.555H326.477V465.443Z" fill="#78E846"/>
<rect width="39" height="15" transform="translate(327.203 351.068)" fill="#78E846"/>
<path d="M333.141 362.178V361.328H332.261V355.688H333.531V360.818H335.791V359.958H337.071V361.328H336.181V362.178H333.141ZM341.047 362.178V361.328H340.167V359.608H339.287V355.688H340.557V359.098H341.437V360.818H341.937V359.098H342.817V355.688H344.097V359.608H343.207V361.328H342.327V362.178H341.047ZM347.192 362.178V361.328H346.312V355.688H347.582V360.818H349.842V359.958H351.122V361.328H350.232V362.178H347.192ZM357.219 362.178V361.328H356.339V359.098H357.219V358.258H359.869V357.058H357.609V357.908H356.339V356.548H357.219V355.688H360.259V356.548H361.149V358.758H360.259V359.608H357.609V360.818H359.869V359.958H361.149V361.328H360.259V362.178H357.219Z" fill="black"/>
<rect x="377.703" y="357.568" width="71" height="71" rx="5.5" stroke="#2B5418"/>
<path d="M426.417 379.854V377.21H423.773V374.568H402.632V377.21H413.203V393.069H426.417V398.354H429.061V379.854L426.417 379.854Z" fill="#78E846"/>
<path d="M415.846 406.283H418.49V408.927H415.846V406.283Z" fill="#78E846"/>
<path d="M418.488 403.639H421.132V406.283H418.488V403.639Z" fill="#78E846"/>
<path d="M421.133 400.998H423.777V403.642H421.133V400.998Z" fill="#78E846"/>
<path d="M423.774 398.354H426.418V400.998H423.774V398.354Z" fill="#78E846"/>
<path d="M399.99 377.21H402.634V379.854H399.99V377.21Z" fill="#78E846"/>
<path d="M413.203 398.353V393.068H399.989V379.853H397.345V398.353H399.989V400.997H402.633V403.639H405.274V406.283H407.918V408.927H410.56V411.568H415.848V408.927H413.204L413.203 398.353Z" fill="#78E846"/>
<path d="M379.14 452.211V451.106H377.996V444.892H379.14V443.774H383.092V444.892H384.249V447.765H383.092V448.207H384.249V451.106H383.092V452.211H379.14ZM379.647 450.443H382.585V448.87H380.284V447.115H382.585V445.555H379.647V450.443ZM387.129 452.211V444.892H388.273V443.774H392.225V444.892H393.382V448.87H392.225V449.988H391.666V450.443H392.797V452.211H391.159V451.106H389.989V449.988H388.78V452.211H387.129ZM388.78 448.207H391.718V445.555H388.78V448.207ZM397.406 452.211V451.106H396.262V444.892H397.406V443.774H401.358V444.892H402.515V451.106H401.358V452.211H397.406ZM397.913 450.443H400.851V445.555H397.913V450.443ZM405.395 452.211V443.774H407.046V444.892H408.19V445.997H409.347V449.325H409.984V443.774H411.648V452.211H409.984V451.106H408.84V449.988H407.683V446.66H407.046V452.211H405.395ZM415.672 452.211V451.106H414.528V448.207H415.672V447.115H419.117V445.555H416.179V446.66H414.528V443.774H419.624V444.892H420.781V447.765H419.624V448.87H416.179V450.443H419.117V449.325H420.781V452.211H415.672ZM424.805 452.211V451.106H423.661V444.892H424.805V443.774H428.757V444.892H429.914V446.66H428.25V445.555H425.312V447.115H427.613V448.87H425.312V450.443H428.25V449.325H429.914V451.106H428.757V452.211H424.805ZM379.14 467.211V466.106H377.996V464.325H379.647V465.443H382.585V463.87H379.14V462.765H377.996V459.892H379.14V458.774H383.092V459.892H384.249V461.66H382.585V460.555H379.647V462.115H383.092V463.207H384.249V466.106H383.092V467.211H379.14ZM387.129 467.211V458.774H388.78V462.115H389.417V460.997H391.081V462.115H391.718V458.774H393.382V467.211H391.718V463.87H388.78V467.211H387.129ZM396.262 467.211V465.443H397.406V460.555H396.262V458.774H400.214V460.555H399.057V465.443H400.214V467.211H396.262ZM404.241 467.211V466.106H403.097V459.892H404.241V458.774H408.193V459.892H409.35V461.66H407.686V460.555H404.748V462.115H407.049V463.87H404.748V465.443H407.686V464.325H409.35V466.106H408.193V467.211H404.241ZM413.374 467.211V466.106H412.23V458.774H413.881V465.443H416.819V464.325H418.483V466.106H417.326V467.211H413.374ZM421.363 467.211V458.774H425.315V459.892H426.459V460.997H427.616V464.988H426.459V466.106H425.315V467.211H421.363ZM423.014 465.443H424.808V464.325H425.952V461.66H424.808V460.555H423.014V465.443Z" fill="#78E846"/>
<rect width="39" height="15" transform="translate(419.203 351.068)" fill="#78E846"/>
<path d="M425.141 362.178V361.328H424.261V355.688H425.531V360.818H427.791V359.958H429.071V361.328H428.181V362.178H425.141ZM433.047 362.178V361.328H432.167V359.608H431.287V355.688H432.557V359.098H433.437V360.818H433.937V359.098H434.817V355.688H436.097V359.608H435.207V361.328H434.327V362.178H433.047ZM439.192 362.178V361.328H438.312V355.688H439.582V360.818H441.842V359.958H443.122V361.328H442.232V362.178H439.192ZM449.219 362.178V361.328H448.339V359.958H449.609V360.818H451.869V359.608H449.219V358.258H451.869V357.058H449.609V357.908H448.339V356.548H449.219V355.688H452.259V356.548H453.149V358.758H452.259V359.098H453.149V361.328H452.259V362.178H449.219Z" fill="black"/>
<rect x="469.703" y="357.568" width="71" height="71" rx="5.5" stroke="#2B5418"/>
<path d="M502.977 393.438H504.457V399.358H502.977V393.438Z" fill="#78E846"/>
<path d="M505.938 393.438H507.418V399.358H505.938V393.438Z" fill="#78E846"/>
<path d="M501.5 399.359H502.98V403.799H501.5V399.359Z" fill="#78E846"/>
<path d="M507.422 399.359H508.902V403.799H507.422V399.359Z" fill="#78E846"/>
<path d="M500.023 403.799H501.503V405.279H500.023V403.799Z" fill="#78E846"/>
<path d="M508.898 403.799H510.378V405.279H508.898V403.799Z" fill="#78E846"/>
<path d="M501.5 405.279H508.9V406.759H501.5V405.279Z" fill="#78E846"/>
<path d="M507.422 391.959H508.902V393.439H507.422V391.959Z" fill="#78E846"/>
<path d="M508.898 390.479H516.298V391.959H508.898V390.479Z" fill="#78E846"/>
<path d="M501.5 391.959H502.98V393.439H501.5V391.959Z" fill="#78E846"/>
<path d="M494.102 390.479H501.502V391.959H494.102V390.479Z" fill="#78E846"/>
<path d="M516.297 391.959H517.777V394.919H516.297V391.959Z" fill="#78E846"/>
<path d="M514.82 394.918H516.3V396.398H514.82V394.918Z" fill="#78E846"/>
<path d="M513.336 396.398H514.816V405.278H513.336V396.398Z" fill="#78E846"/>
<path d="M511.859 405.279H513.339V406.759H511.859V405.279Z" fill="#78E846"/>
<path d="M513.336 406.758H520.736V408.238H513.336V406.758Z" fill="#78E846"/>
<path d="M492.617 391.959H494.097V394.919H492.617V391.959Z" fill="#78E846"/>
<path d="M494.102 394.918H495.582V396.398H494.102V394.918Z" fill="#78E846"/>
<path d="M495.578 396.398H497.058V405.278H495.578V396.398Z" fill="#78E846"/>
<path d="M497.062 405.279H498.543V406.759H497.062V405.279Z" fill="#78E846"/>
<path d="M489.656 406.758H497.056V408.238H489.656V406.758Z" fill="#78E846"/>
<path d="M488.18 388.998H489.66V406.758H488.18V388.998Z" fill="#78E846"/>
<path d="M520.742 388.998H522.222V406.758H520.742V388.998Z" fill="#78E846"/>
<path d="M491.141 383.818H492.621V387.518H491.141V383.818Z" fill="#78E846"/>
<path d="M517.781 383.818H519.261V387.518H517.781V383.818Z" fill="#78E846"/>
<path d="M492.617 382.338H494.097V383.818H492.617V382.338Z" fill="#78E846"/>
<path d="M516.297 382.338H517.777V383.818H516.297V382.338Z" fill="#78E846"/>
<path d="M494.102 380.859H497.062V382.339H494.102V380.859Z" fill="#78E846"/>
<path d="M513.336 380.859H516.296V382.339H513.336V380.859Z" fill="#78E846"/>
<path d="M497.062 379.379H498.543V380.859H497.062V379.379Z" fill="#78E846"/>
<path d="M511.859 379.379H513.339V380.859H511.859V379.379Z" fill="#78E846"/>
<path d="M498.539 377.898H511.859V379.378H498.539V377.898Z" fill="#78E846"/>
<path d="M489.656 387.518H491.136V388.998H489.656V387.518Z" fill="#78E846"/>
<path d="M519.258 387.518H520.738V388.998H519.258V387.518Z" fill="#78E846"/>
<path d="M471.14 452.211V451.106H469.996V449.325H471.647V450.443H474.585V448.87H471.14V447.765H469.996V444.892H471.14V443.774H475.092V444.892H476.249V446.66H474.585V445.555H471.647V447.115H475.092V448.207H476.249V451.106H475.092V452.211H471.14ZM481.163 452.211V445.555H480.526V446.66H478.875V444.892H480.019V443.774H483.971V444.892H485.128V446.66H483.464V445.555H482.827V452.211H481.163ZM488.759 452.211V451.106H487.615V444.892H488.759V443.774H492.711V444.892H493.868V446.66H492.204V445.555H489.266V447.115H491.567V448.87H489.266V450.443H492.204V449.325H493.868V451.106H492.711V452.211H488.759ZM497.892 452.211V451.106H496.748V444.892H497.892V443.774H501.844V444.892H503.001V446.66H501.337V445.555H498.399V447.115H500.7V448.87H498.399V450.443H501.337V449.325H503.001V451.106H501.844V452.211H497.892ZM507.025 452.211V451.106H505.881V443.774H507.532V450.443H510.47V449.325H512.134V451.106H510.977V452.211H507.025ZM469.996 467.211V458.774H471.647V462.115H472.284V460.997H473.948V462.115H474.585V458.774H476.249V467.211H474.585V463.87H471.647V467.211H469.996ZM480.273 467.211V466.106H479.129V459.892H480.273V458.774H484.225V459.892H485.382V461.66H483.718V460.555H480.78V462.115H483.081V463.87H480.78V465.443H483.718V464.325H485.382V466.106H484.225V467.211H480.273ZM489.406 467.211V466.106H488.262V458.774H489.913V465.443H492.851V464.325H494.515V466.106H493.358V467.211H489.406ZM497.395 467.211V459.892H498.539V458.774H500.19V459.892H501.347V462.115H501.984V459.892H503.141V458.774H504.805V459.892H505.936V467.211H504.298V460.555H503.648V462.765H502.491V466.106H500.84V462.765H499.683V460.555H499.046V467.211H497.395Z" fill="#78E846"/>
<rect width="39" height="15" transform="translate(511.203 351.068)" fill="#78E846"/>
<path d="M517.141 362.178V361.328H516.261V355.688H517.531V360.818H519.791V359.958H521.071V361.328H520.181V362.178H517.141ZM525.047 362.178V361.328H524.167V359.608H523.287V355.688H524.557V359.098H525.437V360.818H525.937V359.098H526.817V355.688H528.097V359.608H527.207V361.328H526.327V362.178H525.047ZM531.192 362.178V361.328H530.312V355.688H531.582V360.818H533.842V359.958H535.122V361.328H534.232V362.178H531.192ZM543.869 362.178V360.468H540.339V358.258H541.219V357.398H542.099V356.548H542.989V355.688H545.149V362.178H543.869ZM541.609 359.098H543.869V357.058H543.379V357.908H542.489V358.758H541.609V359.098Z" fill="black"/>
<rect x="561.703" y="357.568" width="71" height="71" rx="5.5" stroke="#2B5418"/>
<path d="M582.29 383.172H584.373C583.887 386.484 585.304 384.72 586.074 385.304C586.227 385.422 586.054 385.817 586.109 385.949C585.199 386.894 585.942 388.449 586.109 389.422C586.179 389.824 586.012 391.061 586.109 391.158C586.241 391.29 588.061 391.019 588.199 391.158C588.338 391.297 588.061 393.109 588.199 393.248C588.734 393.79 591.429 391.866 590.63 395.331H592.72C592.13 392.012 593.991 393.706 594.456 393.248C594.588 393.116 594.318 391.297 594.456 391.158C594.595 391.019 596.408 391.297 596.547 391.158C596.686 391.019 596.408 389.206 596.547 389.067C596.686 388.929 598.505 389.206 598.637 389.067C598.769 388.929 598.505 387.456 598.637 387.324C598.769 387.192 600.588 387.463 600.727 387.324C600.866 387.186 600.588 385.373 600.727 385.234C600.873 385.088 604.241 385.255 604.894 385.234C605.012 385.234 605.123 385.234 605.241 385.234C605.304 385.894 605.186 388.741 604.859 389.019C604.575 389.262 602.97 388.901 602.811 389.054C602.672 389.186 602.95 391.352 602.811 391.484C602.679 391.609 601.193 391.352 601.068 391.484C600.943 391.616 601.2 393.095 601.068 393.227C600.936 393.359 599.116 393.088 598.977 393.227C598.838 393.366 599.116 395.179 598.977 395.318C598.831 395.463 597.102 395.144 596.908 395.331C596.824 395.415 596.838 397.137 596.498 397.352C595.637 397.894 594.38 396.318 594.804 399.137C598.172 398.429 596.401 400.734 596.887 401.22C597.373 401.706 599.679 399.936 598.97 403.304H605.22C605.276 405.318 604.547 406.068 606.956 405.734V407.47H598.97C598.901 407.088 599.074 405.838 598.97 405.734C598.811 405.568 594.616 405.908 594.449 405.734C594.318 405.602 594.588 403.776 594.449 403.644C593.984 403.186 592.123 404.88 592.713 401.561C589.463 401.151 591.192 402.22 590.477 403.325C590.095 403.915 588.672 403.519 588.547 403.651C588.067 404.13 589.873 406.325 585.227 405.748C583.095 405.484 584.331 402.887 584.033 401.22L585.776 401.415C586.817 400.658 584.79 398.429 588.199 399.137V397.394C584.949 397.804 586.679 396.741 585.963 395.637C585.581 395.047 584.158 395.436 584.026 395.318C583.866 395.165 584.192 391.304 584.026 391.151C583.894 391.026 582.415 391.283 582.283 391.151C582.005 390.887 582.255 384.519 582.283 383.512C582.283 383.394 582.283 383.283 582.283 383.165L582.29 383.172Z" fill="#78E846"/>
<path d="M609.373 386.993V405.396C609.755 405.466 611.005 405.292 611.109 405.396C611.185 405.472 611.22 407.445 610.907 407.486C610.331 407.57 609.623 407.424 609.018 407.486C608.532 407 610.303 404.695 606.935 405.403V387H609.366L609.373 386.993Z" fill="#78E846"/>
<path d="M585.417 381.089C585.493 381.096 585.792 381.429 586.257 381.45C591.729 381.686 597.382 380.957 602.778 381.783C602.854 382.2 602.736 382.734 602.778 383.172H584.722L584.375 382.825C584.326 382.596 584.319 381.603 584.375 381.436C584.382 381.415 584.701 381.096 584.722 381.089C584.813 381.047 585.243 381.068 585.417 381.089Z" fill="#78E846"/>
<path d="M610.071 378.66V379.007V381.445H612.161H612.508C612.39 382.153 612.675 385.799 612.508 385.952C612.466 385.993 611.564 386.014 611.355 385.952C610.946 385.848 611.348 385.098 609.73 384.903V383.167C609.501 383.153 609.265 383.181 609.036 383.167C608.459 383.132 607.876 383.167 607.3 383.167C607.182 383.167 607.07 383.167 606.952 383.167C607.161 380.118 606.883 381.486 605.216 381.084V379C606.862 378.945 608.439 378.646 610.071 378.653V378.66Z" fill="#78E846"/>
<path d="M610.063 378.659V376.568H614.584V381.443H612.494H612.146L612.153 379.006H610.063V378.659Z" fill="#78E846"/>
<path d="M582.289 383.52H579.858C579.935 383.048 579.747 381.201 579.858 381.09C580.379 380.576 582.685 382.493 581.942 378.659C585.046 378.416 584.039 378.576 584.72 381.09C584.699 381.097 584.379 381.416 584.372 381.437L582.289 381.09C582.261 381.784 582.317 382.486 582.289 383.173C582.289 383.291 582.289 383.402 582.289 383.52Z" fill="#78E846"/>
<path d="M602.773 381.783C597.377 380.956 591.725 381.685 586.252 381.449C585.787 381.428 585.488 381.095 585.412 381.088C585.773 380.512 586.732 380.741 587.315 380.734C589.28 380.706 601.801 380.505 602.447 380.901C602.78 381.102 602.718 381.47 602.773 381.783Z" fill="#78E846"/>
<path d="M606.944 383.171C607.062 383.171 607.173 383.171 607.291 383.171V385.255C606.603 385.276 605.902 385.227 605.208 385.255C605.09 385.255 604.978 385.255 604.86 385.255V383.171C605.548 383.151 606.249 383.206 606.944 383.171Z" fill="#78E846"/>
<path d="M609.035 407.825H607.292V409.568H609.035V407.825Z" fill="#78E846"/>
<path d="M586.119 389.424C585.953 388.452 585.21 386.896 586.119 385.952C586.536 386.993 586.841 388.514 586.119 389.424Z" fill="#78E846"/>
<path d="M605.21 379.006V381.09C604.322 380.874 604.495 379.763 604.516 379.006C604.745 378.992 604.981 379.013 605.21 379.006Z" fill="#78E846"/>
<path d="M609.028 383.172C609.258 383.185 609.494 383.151 609.723 383.172V384.908C608.508 384.762 609.146 384.484 609.028 383.172Z" fill="#78E846"/>
<path d="M584.722 383.173C584.465 383.173 584.423 383.055 584.375 382.826L584.722 383.173Z" fill="#78E846"/>
<path d="M561.996 452.211V443.774H565.948V444.892H567.092V445.997H568.249V449.988H567.092V451.106H565.948V452.211H561.996ZM563.647 450.443H565.441V449.325H566.585V446.66H565.441V445.555H563.647V450.443ZM570.482 452.211V450.443H571.626V445.555H570.482V443.774H574.434V445.555H573.277V450.443H574.434V452.211H570.482ZM577.317 452.211V445.997H578.461V444.892H579.605V443.774H581.269V444.892H582.413V445.997H583.57V452.211H581.906V449.988H578.968V452.211H577.317ZM578.968 448.207H581.906V446.66H580.762V445.555H580.112V446.66H578.968V448.207ZM586.45 452.211V444.892H587.594V443.774H589.245V444.892H590.402V447.115H591.039V444.892H592.196V443.774H593.86V444.892H594.991V452.211H593.353V445.555H592.703V447.765H591.546V451.106H589.895V447.765H588.738V445.555H588.101V452.211H586.45ZM599.025 452.211V451.106H597.881V444.892H599.025V443.774H602.977V444.892H604.134V451.106H602.977V452.211H599.025ZM599.532 450.443H602.47V445.555H599.532V450.443ZM607.014 452.211V443.774H608.665V444.892H609.809V445.997H610.966V449.325H611.603V443.774H613.267V452.211H611.603V451.106H610.459V449.988H609.302V446.66H608.665V452.211H607.014ZM616.147 452.211V443.774H620.099V444.892H621.243V445.997H622.4V449.988H621.243V451.106H620.099V452.211H616.147ZM617.798 450.443H619.592V449.325H620.736V446.66H619.592V445.555H617.798V450.443ZM561.996 467.211V459.892H563.14V458.774H567.092V459.892H568.249V463.87H567.092V464.988H566.533V465.443H567.664V467.211H566.026V466.106H564.856V464.988H563.647V467.211H561.996ZM563.647 463.207H566.585V460.555H563.647V463.207ZM571.129 467.211V465.443H572.273V460.555H571.129V458.774H575.081V460.555H573.924V465.443H575.081V467.211H571.129ZM577.964 467.211V458.774H579.615V459.892H580.759V460.997H581.916V464.325H582.553V458.774H584.217V467.211H582.553V466.106H581.409V464.988H580.252V461.66H579.615V467.211H577.964ZM588.241 467.211V466.106H587.097V459.892H588.241V458.774H592.193V459.892H593.35V462.765H591.686V460.555H588.748V465.443H591.686V464.988H590.542V463.87H589.385V462.115H591.049V463.207H593.35V466.106H592.193V467.211H588.241Z" fill="#78E846"/>
<rect width="39" height="15" transform="translate(602.203 351.068)" fill="#78E846"/>
<path d="M608.141 362.178V361.328H607.261V355.688H608.531V360.818H610.791V359.958H612.071V361.328H611.181V362.178H608.141ZM616.047 362.178V361.328H615.167V359.608H614.287V355.688H615.557V359.098H616.437V360.818H616.937V359.098H617.817V355.688H619.097V359.608H618.207V361.328H617.327V362.178H616.047ZM622.192 362.178V361.328H621.312V355.688H622.582V360.818H624.842V359.958H626.122V361.328H625.232V362.178H622.192ZM632.219 362.178V361.328H631.339V356.548H632.219V355.688H635.259V356.548H636.149V357.908H634.869V357.058H632.609V358.258H635.259V359.098H636.149V361.328H635.259V362.178H632.219ZM632.609 360.818H634.869V359.608H632.609V360.818Z" fill="black"/>
<rect x="285.703" y="491.568" width="71" height="71" rx="5.5" stroke="#2B5418"/>
<g clip-path="url(#clip2_19_3058)">
<path fill-rule="evenodd" clip-rule="evenodd" d="M297.862 524.608H303.697V521.69H297.862V524.608ZM306.615 515.855V507.102H303.697V510.02H300.78V515.855H297.862V518.773H309.533V515.855H306.615ZM312.45 504.185H309.533V515.855H312.45V504.185ZM329.956 504.185V515.855H332.873V504.185H329.956ZM341.626 515.855V510.02H338.708V507.102H335.791V515.855H332.873V518.773H344.544V515.855H341.626ZM338.708 524.608H344.544V521.69H338.708V524.608ZM324.121 521.69H318.285V518.773H309.533V521.69H306.615V533.361H318.285V530.443H324.121V533.361H335.791V521.69H332.873V518.773H324.121V521.69ZM327.038 539.196V542.113H329.956V547.948H332.873V542.113H335.791V536.278H324.121V539.196H327.038ZM318.285 536.278H324.121V533.361H318.285V536.278ZM318.285 539.196V536.278H306.615V542.113H309.533V547.948H312.45V542.113H315.368V539.196H318.285ZM324.121 539.196H318.285V542.113H315.368V547.948H327.038V542.113H324.121V539.196Z" fill="#78E846"/>
</g>
<path d="M287.14 586.211V585.106H285.996V578.892H287.14V577.774H291.092V578.892H292.249V581.765H290.585V579.555H287.647V584.443H290.585V582.207H292.249V585.106H291.092V586.211H287.14ZM295.129 586.211V577.774H296.78V581.115H297.417V579.997H299.081V581.115H299.718V577.774H301.382V586.211H299.718V582.87H296.78V586.211H295.129ZM304.262 586.211V579.997H305.406V578.892H306.55V577.774H308.214V578.892H309.358V579.997H310.515V586.211H308.851V583.988H305.913V586.211H304.262ZM305.913 582.207H308.851V580.66H307.707V579.555H307.057V580.66H305.913V582.207ZM313.395 586.211V584.443H314.539V579.555H313.395V577.774H317.347V579.555H316.19V584.443H317.347V586.211H313.395ZM320.23 586.211V577.774H321.881V578.892H323.025V579.997H324.182V583.325H324.819V577.774H326.483V586.211H324.819V585.106H323.675V583.988H322.518V580.66H321.881V586.211H320.23ZM285.996 601.211V593.892H287.14V592.774H288.791V593.892H289.948V596.115H290.585V593.892H291.742V592.774H293.406V593.892H294.537V601.211H292.899V594.555H292.249V596.765H291.092V600.106H289.441V596.765H288.284V594.555H287.647V601.211H285.996ZM297.3 601.211V594.997H298.444V593.892H299.588V592.774H301.252V593.892H302.396V594.997H303.553V601.211H301.889V598.988H298.951V601.211H297.3ZM298.951 597.207H301.889V595.66H300.745V594.555H300.095V595.66H298.951V597.207ZM306.433 601.211V599.443H307.577V594.555H306.433V592.774H310.385V594.555H309.228V599.443H310.385V601.211H306.433ZM314.412 601.211V600.106H313.268V592.774H314.919V599.443H317.857V598.325H319.521V600.106H318.364V601.211H314.412Z" fill="#78E846"/>
<rect width="37" height="15" transform="translate(327.203 485.068)" fill="#78E846"/>
<path d="M333.025 496.178V495.328H332.145V489.688H333.415V494.818H335.675V493.958H336.955V495.328H336.065V496.178H333.025ZM340.93 496.178V495.328H340.05V493.608H339.17V489.688H340.44V493.098H341.32V494.818H341.82V493.098H342.7V489.688H343.98V493.608H343.09V495.328H342.21V496.178H340.93ZM347.076 496.178V495.328H346.196V489.688H347.466V494.818H349.726V493.958H351.006V495.328H350.116V496.178H347.076ZM357.983 496.178V491.058H357.493V491.908H356.223V490.548H357.103V489.688H358.373V490.548H359.263V496.178H357.983Z" fill="black"/>
<rect x="377.703" y="491.568" width="71" height="71" rx="5.5" stroke="#2B5418"/>
<path fill-rule="evenodd" clip-rule="evenodd" d="M430.536 525.818V520.818H427.87V518.318H425.203V515.818H422.536V513.318H419.87V510.818H414.536V508.318H398.536V510.818H395.87V513.318H393.203V533.318H395.87V535.818H398.536V538.318H409.203V535.818H411.87V533.318H401.203V530.818H398.536V515.818H401.203V513.318H411.87V515.818H417.203V518.318H419.87V520.818H422.536V523.318H425.203V525.818H427.87V528.318H422.536V530.818H425.203V533.318H430.536V530.818H433.203V525.818H430.536ZM414.536 533.318V535.818H417.203V533.318H414.536ZM417.203 533.318H422.536V530.818H417.203V533.318ZM427.87 540.818V535.818H425.203V540.818H427.87ZM411.87 535.818V540.818H414.536V535.818H411.87ZM417.203 545.818H422.536V543.318H417.203V545.818ZM414.536 540.818V543.318H417.203V540.818H414.536ZM422.536 543.318H425.203V540.818H422.536V543.318ZM422.536 535.818H425.203V533.318H422.536V535.818ZM417.203 540.818H422.536V535.818H417.203V540.818Z" fill="#78E846"/>
<path d="M377.996 586.211V578.892H379.14V577.774H383.092V578.892H384.249V582.87H383.092V583.988H379.647V586.211H377.996ZM379.647 582.207H382.585V579.555H379.647V582.207ZM388.273 586.211V585.106H387.129V578.892H388.273V577.774H392.225V578.892H393.382V580.66H391.718V579.555H388.78V581.115H391.081V582.87H388.78V584.443H391.718V583.325H393.382V585.106H392.225V586.211H388.273ZM396.262 586.211V579.997H397.406V578.892H398.55V577.774H400.214V578.892H401.358V579.997H402.515V586.211H400.851V583.988H397.913V586.211H396.262ZM397.913 582.207H400.851V580.66H399.707V579.555H399.057V580.66H397.913V582.207ZM405.395 586.211V578.892H406.539V577.774H410.491V578.892H411.648V582.87H410.491V583.988H409.932V584.443H411.063V586.211H409.425V585.106H408.255V583.988H407.046V586.211H405.395ZM407.046 582.207H409.984V579.555H407.046V582.207ZM415.672 586.211V585.106H414.528V577.774H416.179V584.443H419.117V583.325H420.781V585.106H419.624V586.211H415.672ZM377.996 601.211V592.774H379.647V593.892H380.791V594.997H381.948V598.325H382.585V592.774H384.249V601.211H382.585V600.106H381.441V598.988H380.284V595.66H379.647V601.211H377.996ZM388.273 601.211V600.106H387.129V593.892H388.273V592.774H392.225V593.892H393.382V595.66H391.718V594.555H388.78V596.115H391.081V597.87H388.78V599.443H391.718V598.325H393.382V600.106H392.225V601.211H388.273ZM397.406 601.211V600.106H396.262V593.892H397.406V592.774H401.358V593.892H402.515V596.765H400.851V594.555H397.913V599.443H400.851V597.207H402.515V600.106H401.358V601.211H397.406ZM405.395 601.211V593.892H406.539V592.774H408.19V594.555H407.046V596.115H407.683V594.997H408.84V593.892H409.984V592.774H411.648V594.555H410.491V595.66H409.347V596.765H408.19V597.207H409.347V598.325H410.491V599.443H411.648V601.211H409.984V600.106H408.84V598.988H407.683V597.87H407.046V601.211H405.395ZM415.672 601.211V600.106H414.528V592.774H416.179V599.443H419.117V598.325H420.781V600.106H419.624V601.211H415.672ZM423.661 601.211V594.997H424.805V593.892H425.949V592.774H427.613V593.892H428.757V594.997H429.914V601.211H428.25V598.988H425.312V601.211H423.661ZM425.312 597.207H428.25V595.66H427.106V594.555H426.456V595.66H425.312V597.207ZM432.794 601.068V599.287H434.445V601.068H432.794ZM437.331 601.068V599.287H438.982V601.068H437.331ZM441.869 601.068V599.287H443.52V601.068H441.869Z" fill="#78E846"/>
<rect width="39" height="15" transform="translate(419.203 485.068)" fill="#78E846"/>
<path d="M425.141 496.178V495.328H424.261V489.688H425.531V494.818H427.791V493.958H429.071V495.328H428.181V496.178H425.141ZM433.047 496.178V495.328H432.167V493.608H431.287V489.688H432.557V493.098H433.437V494.818H433.937V493.098H434.817V489.688H436.097V493.608H435.207V495.328H434.327V496.178H433.047ZM439.192 496.178V495.328H438.312V489.688H439.582V494.818H441.842V493.958H443.122V495.328H442.232V496.178H439.192ZM451.869 496.178V494.468H448.339V492.258H449.219V491.398H450.099V490.548H450.989V489.688H453.149V496.178H451.869ZM449.609 493.098H451.869V491.058H451.379V491.908H450.489V492.758H449.609V493.098Z" fill="black"/>
<rect x="469.703" y="491.568" width="71" height="71" rx="5.5" stroke="#2B5418"/>
<path fill-rule="evenodd" clip-rule="evenodd" d="M493.266 510.466V508.094H483.717V512.838H495.654V510.466H493.266ZM500.428 508.094H495.654V510.466H500.428V508.094ZM500.428 512.838H495.654V515.21H500.428V512.838ZM500.428 519.953V517.581H495.654V519.953H500.428ZM500.428 524.697V522.325H495.654V524.697H500.428ZM500.428 529.44V527.068H495.654V529.44H500.428ZM512.365 529.44V527.068H507.59V529.44H512.365ZM512.365 524.697V522.325H507.59V524.697H512.365ZM512.365 519.953V517.581H507.59V519.953H512.365ZM512.365 512.838H507.59V515.21H512.365V512.838ZM512.365 508.094H507.59V510.466H512.365V508.094ZM505.203 510.466V508.094H502.816V512.838H507.59V510.466H505.203ZM505.203 527.068H507.59V524.697H505.203V522.325H507.59V519.953H505.203V517.581H507.59V515.21H502.816V529.44H505.203V527.068ZM500.428 534.184V531.812H495.654V529.44H493.266V527.068H495.654V524.697H493.266V522.325H495.654V519.953H493.266V517.581H495.654V515.21H483.717V538.927H498.041V534.184H500.428ZM512.365 534.184H509.978V531.812H502.816V534.184H500.428V538.927H498.041V541.299H514.753V536.555H512.365V534.184ZM483.717 546.043H495.654V543.671H498.041V541.299H483.717V546.043ZM514.753 546.043V543.671H498.041V546.043H514.753ZM517.14 546.043H526.689V543.671H517.14V546.043ZM524.302 536.555V534.184H521.915V531.812H517.14V534.184H514.753V536.555H517.14V541.299H526.689V536.555H524.302ZM514.753 531.812H512.365V534.184H514.753V531.812Z" fill="#78E846"/>
<path d="M471.14 586.211V585.106H469.996V577.774H471.647V584.443H474.585V583.325H476.249V585.106H475.092V586.211H471.14ZM480.273 586.211V585.106H479.129V578.892H480.273V577.774H484.225V578.892H485.382V580.66H483.718V579.555H480.78V581.115H483.081V582.87H480.78V584.443H483.718V583.325H485.382V585.106H484.225V586.211H480.273ZM488.262 586.211V579.997H489.406V578.892H490.55V577.774H492.214V578.892H493.358V579.997H494.515V586.211H492.851V583.988H489.913V586.211H488.262ZM489.913 582.207H492.851V580.66H491.707V579.555H491.057V580.66H489.913V582.207ZM498.909 586.211V579.555H498.272V580.66H496.621V578.892H497.765V577.774H501.717V578.892H502.874V580.66H501.21V579.555H500.573V586.211H498.909ZM505.36 586.211V577.774H507.011V581.115H507.648V579.997H509.312V581.115H509.949V577.774H511.613V586.211H509.949V582.87H507.011V586.211H505.36ZM515.637 586.211V585.106H514.493V578.892H515.637V577.774H519.589V578.892H520.746V580.66H519.082V579.555H516.144V581.115H518.445V582.87H516.144V584.443H519.082V583.325H520.746V585.106H519.589V586.211H515.637ZM523.626 586.211V578.892H524.77V577.774H528.722V578.892H529.879V582.87H528.722V583.988H528.163V584.443H529.294V586.211H527.656V585.106H526.486V583.988H525.277V586.211H523.626ZM525.277 582.207H528.215V579.555H525.277V582.207ZM471.14 601.211V600.106H469.996V593.892H471.14V592.774H475.092V593.892H476.249V596.765H475.092V597.207H476.249V600.106H475.092V601.211H471.14ZM471.647 599.443H474.585V597.87H472.284V596.115H474.585V594.555H471.647V599.443ZM480.273 601.211V600.106H479.129V593.892H480.273V592.774H484.225V593.892H485.382V600.106H484.225V601.211H480.273ZM480.78 599.443H483.718V594.555H480.78V599.443ZM489.406 601.211V600.106H488.262V593.892H489.406V592.774H493.358V593.892H494.515V600.106H493.358V601.211H489.406ZM489.913 599.443H492.851V594.555H489.913V599.443ZM499.429 601.211V594.555H498.792V595.66H497.141V593.892H498.285V592.774H502.237V593.892H503.394V595.66H501.73V594.555H501.093V601.211H499.429ZM507.164 601.211V600.106H506.02V598.325H507.671V599.443H510.609V597.87H507.164V596.765H506.02V593.892H507.164V592.774H511.116V593.892H512.273V595.66H510.609V594.555H507.671V596.115H511.116V597.207H512.273V600.106H511.116V601.211H507.164Z" fill="#78E846"/>
<rect width="39" height="15" transform="translate(511.203 485.068)" fill="#78E846"/>
<path d="M517.141 496.178V495.328H516.261V489.688H517.531V494.818H519.791V493.958H521.071V495.328H520.181V496.178H517.141ZM525.047 496.178V495.328H524.167V493.608H523.287V489.688H524.557V493.098H525.437V494.818H525.937V493.098H526.817V489.688H528.097V493.608H527.207V495.328H526.327V496.178H525.047ZM531.192 496.178V495.328H530.312V489.688H531.582V494.818H533.842V493.958H535.122V495.328H534.232V496.178H531.192ZM541.219 496.178V495.328H540.339V490.548H541.219V489.688H544.259V490.548H545.149V491.908H543.869V491.058H541.609V492.258H544.259V493.098H545.149V495.328H544.259V496.178H541.219ZM541.609 494.818H543.869V493.608H541.609V494.818Z" fill="black"/>
<rect x="561.703" y="491.568" width="71" height="71" rx="5.5" stroke="#2B5418"/>
<path d="M607.703 528.818V525.318H605.953V523.568H604.203V521.818H600.703V518.318H598.953V520.068H595.453V518.318H593.703V521.818H590.203V523.568H588.453V525.318H586.703V528.818H584.953V535.818H586.703V539.318H588.453V541.068H590.203V542.818H593.703V544.568H600.703V542.818H604.203V541.068H605.953V539.318H607.703V535.818H609.453V528.818H607.703ZM602.453 534.068V537.568H598.953V539.318H595.453V537.568H591.953V534.068H590.203V530.568H591.953V527.068H595.453V525.318H598.953V527.068H602.453V530.568H604.204V534.068H602.453Z" fill="#78E846"/>
<path d="M591.96 516.569H593.71V518.319H591.96V516.569Z" fill="#78E846"/>
<path d="M590.208 514.819H591.959V516.569H590.208V514.819Z" fill="#78E846"/>
<path d="M588.457 513.067H590.207V514.817H588.457V513.067Z" fill="#78E846"/>
<path d="M590.208 511.318H591.959V513.068H590.208V511.318Z" fill="#78E846"/>
<path d="M591.96 509.568H602.46V511.318H591.96V509.568Z" fill="#78E846"/>
<path d="M600.71 516.569H602.46V518.319H600.71V516.569Z" fill="#78E846"/>
<path d="M602.453 514.819H604.203V516.569H602.453V514.819Z" fill="#78E846"/>
<path d="M604.204 513.067H605.954V514.817H604.204V513.067Z" fill="#78E846"/>
<path d="M602.453 511.318H604.203V513.068H602.453V511.318Z" fill="#78E846"/>
<path d="M598.958 513.067H600.708V514.817H598.958V513.067Z" fill="#78E846"/>
<path d="M597.207 514.819H598.957V516.569H597.207V514.819Z" fill="#78E846"/>
<path d="M563.14 586.211V585.106H561.996V578.892H563.14V577.774H567.092V578.892H568.249V581.765H566.585V579.555H563.647V584.443H566.585V582.207H568.249V585.106H567.092V586.211H563.14ZM571.129 586.211V577.774H572.78V581.115H573.417V579.997H575.081V581.115H575.718V577.774H577.382V586.211H575.718V582.87H572.78V586.211H571.129ZM580.262 586.211V579.997H581.406V578.892H582.55V577.774H584.214V578.892H585.358V579.997H586.515V586.211H584.851V583.988H581.913V586.211H580.262ZM581.913 582.207H584.851V580.66H583.707V579.555H583.057V580.66H581.913V582.207ZM589.395 586.211V578.892H590.539V577.774H594.491V578.892H595.648V582.87H594.491V583.988H593.932V584.443H595.063V586.211H593.425V585.106H592.255V583.988H591.046V586.211H589.395ZM591.046 582.207H593.984V579.555H591.046V582.207ZM598.528 586.211V584.443H599.672V579.555H598.528V577.774H602.48V579.555H601.323V584.443H602.48V586.211H598.528ZM606.507 586.211V585.106H605.363V583.325H607.014V584.443H609.952V582.87H606.507V581.765H605.363V578.892H606.507V577.774H610.459V578.892H611.616V580.66H609.952V579.555H607.014V581.115H610.459V582.207H611.616V585.106H610.459V586.211H606.507ZM614.496 586.211V578.892H615.64V577.774H617.291V578.892H618.448V581.115H619.085V578.892H620.242V577.774H621.906V578.892H623.037V586.211H621.399V579.555H620.749V581.765H619.592V585.106H617.941V581.765H616.784V579.555H616.147V586.211H614.496ZM625.8 586.211V579.997H626.944V578.892H628.088V577.774H629.752V578.892H630.896V579.997H632.053V586.211H630.389V583.988H627.451V586.211H625.8ZM627.451 582.207H630.389V580.66H629.245V579.555H628.595V580.66H627.451V582.207ZM561.996 601.211V593.892H563.14V592.774H567.092V593.892H568.249V597.87H567.092V598.988H566.533V599.443H567.664V601.211H566.026V600.106H564.856V598.988H563.647V601.211H561.996ZM563.647 597.207H566.585V594.555H563.647V597.207ZM571.129 601.211V599.443H572.273V594.555H571.129V592.774H575.081V594.555H573.924V599.443H575.081V601.211H571.129ZM577.964 601.211V592.774H579.615V593.892H580.759V594.997H581.916V598.325H582.553V592.774H584.217V601.211H582.553V600.106H581.409V598.988H580.252V595.66H579.615V601.211H577.964ZM588.241 601.211V600.106H587.097V593.892H588.241V592.774H592.193V593.892H593.35V596.765H591.686V594.555H588.748V599.443H591.686V598.988H590.542V597.87H589.385V596.115H591.049V597.207H593.35V600.106H592.193V601.211H588.241Z" fill="#78E846"/>
<rect width="44" height="15" transform="translate(597.203 485.068)" fill="#78E846"/>
<path d="M603.012 496.178V495.328H602.132V489.688H603.402V494.818H605.662V493.958H606.942V495.328H606.052V496.178H603.012ZM610.918 496.178V495.328H610.038V493.608H609.158V489.688H610.428V493.098H611.308V494.818H611.808V493.098H612.688V489.688H613.968V493.608H613.078V495.328H612.198V496.178H610.918ZM617.063 496.178V495.328H616.183V489.688H617.453V494.818H619.713V493.958H620.993V495.328H620.103V496.178H617.063ZM627.971 496.178V491.058H627.481V491.908H626.211V490.548H627.091V489.688H628.361V490.548H629.251V496.178H627.971ZM632.348 496.178V495.328H631.468V493.098H632.348V492.258H634.998V491.058H632.738V491.908H631.468V490.548H632.348V489.688H635.388V490.548H636.278V492.758H635.388V493.608H632.738V494.818H634.998V493.958H636.278V495.328H635.388V496.178H632.348Z" fill="black"/>
<rect x="285.703" y="653.568" width="347" height="153.932" rx="5.5" fill="white"/>
<rect x="285.703" y="653.568" width="347" height="153.932" rx="5.5" fill="#171D10"/>
<rect x="285.703" y="653.568" width="347" height="153.932" rx="5.5" stroke="black"/>
<path d="M351.199 726.21V724.034H352.607V718.018H351.199V715.826H356.063V718.018H354.639V724.034H356.063V726.21H351.199ZM359.612 726.21V715.826H361.644V717.202H363.052V718.562H364.476V722.658H365.26V715.826H367.308V726.21H365.26V724.85H363.852V723.474H362.428V719.378H361.644V726.21H359.612ZM370.852 726.21V715.826H377.124V717.202H378.548V719.378H376.5V718.018H372.884V719.938H375.716V722.098H372.884V726.21H370.852ZM383.188 726.21V724.85H381.78V717.202H383.188V715.826H388.052V717.202H389.476V724.85H388.052V726.21H383.188ZM383.812 724.034H387.428V718.018H383.812V724.034ZM393.021 726.21V717.202H394.429V715.826H399.293V717.202H400.717V722.098H399.293V723.474H398.605V724.034H399.997V726.21H397.981V724.85H396.541V723.474H395.053V726.21H393.021ZM395.053 721.282H398.669V718.018H395.053V721.282ZM404.262 726.21V717.202H405.67V715.826H407.702V717.202H409.126V719.938H409.91V717.202H411.334V715.826H413.382V717.202H414.774V726.21H412.758V718.018H411.958V720.738H410.534V724.85H408.502V720.738H407.078V718.018H406.294V726.21H404.262ZM418.174 726.21V718.562H419.582V717.202H420.99V715.826H423.038V717.202H424.446V718.562H425.87V726.21H423.822V723.474H420.206V726.21H418.174ZM420.206 721.282H423.822V719.378H422.414V718.018H421.614V719.378H420.206V721.282ZM431.278 726.21V718.018H430.494V719.378H428.462V717.202H429.87V715.826H434.734V717.202H436.158V719.378H434.11V718.018H433.326V726.21H431.278ZM439.702 726.21V724.034H441.11V718.018H439.702V715.826H444.566V718.018H443.142V724.034H444.566V726.21H439.702ZM449.523 726.21V724.85H448.115V717.202H449.523V715.826H454.387V717.202H455.811V724.85H454.387V726.21H449.523ZM450.147 724.034H453.763V718.018H450.147V724.034ZM459.355 726.21V715.826H461.387V717.202H462.795V718.562H464.219V722.658H465.003V715.826H467.051V726.21H465.003V724.85H463.595V723.474H462.171V719.378H461.387V726.21H459.355ZM475.399 726.21V718.562H476.807V717.202H478.215V715.826H480.263V717.202H481.671V718.562H483.095V726.21H481.047V723.474H477.431V726.21H475.399ZM477.431 721.282H481.047V719.378H479.639V718.018H478.839V719.378H477.431V721.282ZM488.048 726.21V724.85H486.64V717.202H488.048V715.826H492.912V717.202H494.336V720.738H492.912V721.282H494.336V724.85H492.912V726.21H488.048ZM488.672 724.034H492.288V722.098H489.456V719.938H492.288V718.018H488.672V724.034ZM499.288 726.21V724.85H497.88V717.202H499.288V715.826H504.152V717.202H505.576V724.85H504.152V726.21H499.288ZM499.912 724.034H503.528V718.018H499.912V724.034ZM510.529 726.21V724.85H509.121V715.826H511.153V724.034H514.769V715.826H516.817V724.85H515.393V726.21H510.529ZM522.693 726.21V718.018H521.909V719.378H519.877V717.202H521.285V715.826H526.149V717.202H527.573V719.378H525.525V718.018H524.741V726.21H522.693ZM538.737 726.21V718.018H537.953V719.378H535.921V717.202H537.329V715.826H542.193V717.202H543.617V719.378H541.569V718.018H540.785V726.21H538.737ZM546.677 726.21V715.826H548.709V719.938H549.493V718.562H551.541V719.938H552.325V715.826H554.373V726.21H552.325V722.098H548.709V726.21H546.677ZM559.326 726.21V724.85H557.918V717.202H559.326V715.826H564.19V717.202H565.614V719.378H563.566V718.018H559.95V719.938H562.782V722.098H559.95V724.034H563.566V722.658H565.614V724.85H564.19V726.21H559.326ZM391.56 746.21V737.202H392.968V735.826H397.832V737.202H399.256V742.098H397.832V743.474H397.144V744.034H398.536V746.21H396.52V744.85H395.08V743.474H393.592V746.21H391.56ZM393.592 741.282H397.208V738.018H393.592V741.282ZM404.209 746.21V744.85H402.801V735.826H404.833V744.034H408.449V735.826H410.497V744.85H409.073V746.21H404.209ZM414.041 746.21V735.826H416.073V737.202H417.481V738.562H418.905V742.658H419.689V735.826H421.737V746.21H419.689V744.85H418.281V743.474H416.857V739.378H416.073V746.21H414.041ZM431.493 746.21V744.85H430.085V737.202H431.493V735.826H436.357V737.202H437.781V740.738H435.733V738.018H432.117V744.034H435.733V743.474H434.325V742.098H432.901V739.938H434.949V741.282H437.781V744.85H436.357V746.21H431.493ZM442.734 746.21V744.85H441.326V737.202H442.734V735.826H447.598V737.202H449.022V744.85H447.598V746.21H442.734ZM443.358 744.034H446.974V738.018H443.358V744.034ZM453.974 746.21V744.85H452.566V737.202H453.974V735.826H458.838V737.202H460.262V739.378H458.214V738.018H454.598V739.938H457.43V742.098H454.598V744.034H458.214V742.658H460.262V744.85H458.838V746.21H453.974ZM465.215 746.21V744.85H463.807V742.658H465.839V744.034H469.455V742.098H465.215V740.738H463.807V737.202H465.215V735.826H470.079V737.202H471.503V739.378H469.455V738.018H465.839V739.938H470.079V741.282H471.503V744.85H470.079V746.21H465.215ZM479.851 746.21V735.826H481.883V739.938H482.667V738.562H484.715V739.938H485.499V735.826H487.547V746.21H485.499V742.098H481.883V746.21H479.851ZM492.499 746.21V744.85H491.091V737.202H492.499V735.826H497.363V737.202H498.787V739.378H496.739V738.018H493.123V739.938H495.955V742.098H493.123V744.034H496.739V742.658H498.787V744.85H497.363V746.21H492.499ZM502.332 746.21V737.202H503.74V735.826H508.604V737.202H510.028V742.098H508.604V743.474H507.916V744.034H509.308V746.21H507.292V744.85H505.852V743.474H504.364V746.21H502.332ZM504.364 741.282H507.98V738.018H504.364V741.282ZM514.981 746.21V744.85H513.573V737.202H514.981V735.826H519.845V737.202H521.269V739.378H519.221V738.018H515.605V739.938H518.437V742.098H515.605V744.034H519.221V742.658H521.269V744.85H519.845V746.21H514.981ZM524.813 746.034V743.842H526.845V746.034H524.813Z" fill="#78E846"/>
<path fill-rule="evenodd" clip-rule="evenodd" d="M714.415 856.727H708.169C707.82 854.636 708.962 850.23 707.552 848.849L707.138 848.878C705.188 848.98 702.983 848.643 701.09 848.806L700.69 848.849C700.465 848.879 700.203 848.788 700.066 848.849V862.787C699.593 862.637 699.514 862.566 699.469 862.279L699.423 861.908C699.504 862.526 699.43 862.587 700.066 862.787C702.954 863.702 710.89 862.109 714.415 862.787V888.846H686.341C686.195 884.892 686.509 880.868 686.375 876.91L686.341 876.119H671.369C671.421 875.705 671.107 874.934 671.625 874.893C671.098 874.928 671.415 875.703 671.362 876.119C671.125 877.931 671.399 880.259 671.362 882.18C671.359 882.237 670.757 882.533 670.769 882.918C670.77 882.538 671.362 882.247 671.362 882.192L671.369 882.18C673.315 883.616 678.044 882.046 679.516 883.052C680.439 883.682 680.452 887.949 679.516 888.585C678.019 889.603 668.275 888.373 665.748 888.852C665.723 888.246 665.773 887.639 665.748 887.033L678.855 887.646V887.634L665.753 887.022C665.722 886.018 665.778 885.001 665.753 883.997L665.724 882.032C665.707 880.061 665.725 878.078 665.753 876.119L666.258 876.525C666.259 876.523 666.259 876.521 666.259 876.52L665.753 876.113V874.901C665.791 873.091 665.722 871.263 665.753 869.447H694.451V842.183C701.132 843.595 707.708 842.237 714.415 842.183V856.727ZM705.376 883.885C702.496 883.888 699.424 884.175 696.544 884.195C699.422 884.176 702.496 883.888 705.376 883.885ZM700.066 868.854L700.061 869.151C700.063 869.252 700.066 869.353 700.066 869.453C699.978 869.506 699.9 869.573 699.832 869.651C699.899 869.575 699.974 869.511 700.06 869.459L700.066 869.453C700.016 871.465 700.103 873.502 700.066 875.52H691.955C691.819 875.984 691.818 882.976 691.955 883.391L708.169 882.785H708.176C708.151 883.185 708.213 883.597 708.176 883.996C708.178 883.996 708.18 883.997 708.182 883.997C708.213 883.597 708.151 883.185 708.182 882.785C708.195 882.586 708.182 882.38 708.182 882.18C710.066 882.519 709.393 881.253 709.43 880.089C709.524 877.307 709.542 874.326 709.43 871.55C709.396 870.744 709.714 869.895 709.295 869.556C709.705 869.899 709.389 870.746 709.423 871.544C709.536 874.32 709.517 877.302 709.423 880.083C709.386 881.253 710.06 882.512 708.176 882.173C708.27 878.406 708.434 873.99 708.223 870.197L708.176 869.453C708.178 869.453 708.18 869.453 708.181 869.452C708.17 869.255 708.213 869.045 708.182 868.854C708.182 868.852 708.181 868.85 708.181 868.848H700.066C700.066 868.85 700.066 868.852 700.066 868.854ZM699.444 874.91C698.944 875.358 693.581 874.309 692.233 875.184C693.594 874.316 698.967 875.369 699.442 874.913C699.443 874.912 699.443 874.911 699.444 874.91ZM666.377 870.066C666.804 870.962 667.274 872.275 667.049 873.357C667.278 872.276 666.81 870.963 666.379 870.065L666.377 870.066ZM708.225 868.046C708.224 868.236 708.184 868.458 708.175 868.65C708.185 868.458 708.225 868.235 708.225 868.046Z" fill="#78E846"/>
<path fill-rule="evenodd" clip-rule="evenodd" d="M438.044 862.787C438.388 862.787 437.795 868.641 438.044 869.453C437.59 869.249 437.406 868.624 437.353 867.849L437.335 867.371C437.342 868.36 437.496 869.208 438.039 869.453C438.176 869.514 438.438 869.423 438.663 869.453C438.751 869.526 438.861 869.591 438.992 869.651C438.866 869.593 438.76 869.529 438.674 869.459L438.668 869.453C441.014 869.756 453.115 868.938 453.647 869.453C454.052 873.641 453.079 878.737 453.647 882.791C452.219 878.907 453.398 874.15 453.03 870.06C453.017 870.048 453.001 870.036 452.98 870.026C452.995 870.034 453.007 870.043 453.017 870.053C453.391 874.143 452.213 878.901 453.635 882.785C453.666 883.003 453.573 883.258 453.635 883.392C453.894 883.924 454.125 884.011 454.452 884.02C454.128 884.01 453.898 883.921 453.641 883.392H466.736C466.848 883.331 467.297 882.894 467.36 882.785C467.362 882.782 467.363 882.778 467.365 882.775C467.049 878.402 468.082 873.607 466.742 869.453H633.313V875.52H515.403L632.695 874.919V870.066H632.683V874.913L515.397 875.514H499.183C501.415 875.008 504.04 874.754 506.666 874.754C504.038 874.754 501.41 875.008 499.176 875.514H490.449C491.849 875.221 493.504 874.814 495.098 874.764L495.621 874.761C493.869 874.722 491.999 875.188 490.443 875.514C490.374 875.526 490.062 875.962 489.495 876.108C488.721 876.301 486.882 875.956 486.7 876.119C486.444 876.344 486.893 881.699 486.7 882.791H658.261V888.852H479.836V875.52C477.852 875.81 474.34 874.804 472.974 876.125C471.472 877.579 472.797 885.18 472.357 887.64H472.363C472.806 885.185 471.477 877.58 472.981 876.119V888.852C469.317 888.283 449.737 889.847 448.033 888.244L448.02 888.245C446.262 886.543 448.242 878.055 447.397 875.524C445.365 876.41 434.612 876.432 433.752 875.452C433.31 874.948 433.921 870.641 433.684 869.459L433.677 869.453C433.681 869.453 433.685 869.452 433.689 869.452C433.681 869.452 433.672 869.454 433.665 869.453C431.604 869.357 429.5 869.519 427.439 869.453V869.459H427.437C427.438 869.457 427.438 869.455 427.439 869.453C427.435 869.453 427.43 869.453 427.426 869.453C426.154 869.853 427.052 873.611 426.802 874.907H413.078V887.634H389.383V887.64H413.09V874.913H426.815C427.064 873.617 426.167 869.862 427.437 869.459C427.192 870.293 427.781 876.118 427.439 876.119H414.337V888.846H389.072C387.331 888.846 388.447 877.333 388.135 875.514C388.543 875.532 388.963 875.484 389.371 875.513V875.507C388.959 875.477 388.535 875.531 388.124 875.507C385.763 875.398 383.011 875.398 380.649 875.506V888.846H202.849V883.385H374.411L203.466 883.986V887.627H203.473V883.991L374.411 883.392V875.514H227.797V869.453H394.368V882.18C394.322 882.182 394.247 882.671 393.974 882.78C394.253 882.671 394.329 882.175 394.375 882.18C394.768 882.198 395.616 882.749 396.533 882.785C398.691 882.864 406.919 883.186 408.099 882.18C408.101 882.178 408.103 882.175 408.105 882.173C408.396 878.274 407.7 873.891 408.105 870.066C408.124 869.866 408.086 869.659 408.105 869.459H422.436C422.438 869.455 422.44 869.451 422.442 869.447C422.504 869.314 422.411 869.059 422.442 868.841L422.448 868.847C422.612 868.873 422.758 868.877 422.887 868.861C422.759 868.877 422.616 868.872 422.455 868.847H422.448C422.672 867.108 422.647 864.563 422.448 862.787H438.044ZM379.389 875.507C379.1 877.177 380.098 886.951 378.615 887.599C380.115 887.003 379.113 877.194 379.401 875.506C379.397 875.506 379.393 875.507 379.389 875.507ZM455.157 884.028C456.049 884.105 457.657 884.168 459.411 884.168C457.66 884.168 456.054 884.105 455.164 884.028C455.066 884.019 454.974 884.016 454.889 884.016C454.972 884.016 455.061 884.019 455.157 884.028ZM444.778 874.846C442.486 874.863 438.803 875.044 436.64 875.046C438.797 875.044 442.481 874.864 444.778 874.846ZM437.239 863.316C437.332 863.338 437.394 863.362 437.42 863.387C437.525 863.489 437.545 863.799 437.528 864.23C437.546 863.798 437.53 863.487 437.427 863.387C437.401 863.361 437.336 863.338 437.239 863.316Z" fill="#78E846"/>
<path d="M153.564 868.241C155.149 867.205 158.966 867.236 160.426 868.241C159.01 867.951 155.242 868.144 153.564 868.241Z" fill="#78E846"/>
<path fill-rule="evenodd" clip-rule="evenodd" d="M166.666 868.847C166.796 869.083 167.089 869.266 167.289 869.453H194.846C195.347 869.477 195.323 869.878 195.381 870.332C195.618 872.127 195.693 886.652 195.363 887.634L195.291 887.833C195.132 888.231 195.015 888.189 194.458 888.258C190.534 888.743 185.674 887.864 181.631 888.245V883.392H189.125C189.262 882.986 189.262 875.925 189.125 875.514H174.775C174.676 875.745 174.812 876.344 174.775 876.726C173.723 876.053 173.526 875.988 173.509 876.392C173.527 875.994 173.727 876.059 174.775 876.726C174.419 880.604 175.037 884.913 174.775 888.846H146.702V862.787H160.426C160.596 862.697 160.866 862.445 161.001 862.257L161.05 862.181V849.455L161.001 849.379C160.885 849.218 160.67 849.01 160.504 848.897L160.426 848.849H153.564C152.154 850.224 153.296 854.643 152.947 856.734C151.262 856.618 149.372 856.97 147.731 856.643C146.121 856.322 147.283 855.602 147.328 855.518C147.465 855.772 147.574 855.922 147.662 855.991L147.607 855.939C147.529 855.856 147.436 855.719 147.326 855.515C147.307 851.279 147.344 847.025 147.326 842.789H166.666V868.847ZM160.426 868.236C158.966 867.23 155.149 867.199 153.564 868.236V868.241C153.358 868.253 153.14 868.211 152.94 868.241V873.089C151.876 872.898 151.628 873.218 151.607 873.743C151.63 873.222 151.88 872.905 152.94 873.096L152.924 874.237C152.857 877.008 152.607 880.388 152.939 882.779C152.97 882.998 152.878 883.253 152.94 883.386C152.941 883.388 152.942 883.39 152.943 883.392H169.783C169.783 883.39 169.784 883.388 169.785 883.386C169.922 882.98 169.922 875.913 169.785 875.507C169.297 874.065 162.207 875.422 161.668 874.902C161.642 874.876 161.622 874.837 161.607 874.785L161.608 874.791C161.622 874.843 161.642 874.882 161.668 874.907C162.206 875.422 169.298 874.066 169.785 875.514H161.044V868.847H161.05C161.397 869.27 161.584 869.833 161.674 870.446C161.584 869.831 161.398 869.265 161.05 868.841C160.876 868.629 160.744 868.302 160.426 868.236ZM151.693 880.907C151.684 881.273 151.623 881.639 151.611 881.951V881.957C151.623 881.643 151.684 881.275 151.693 880.907ZM151.692 875.18C151.661 876.075 151.643 876.988 151.641 877.902C151.643 876.99 151.662 876.079 151.693 875.186C151.693 875.184 151.692 875.182 151.692 875.18ZM176.033 874.891C175.575 874.894 175.266 874.805 174.993 875.138L175.069 875.058C175.375 874.776 175.736 874.941 176.297 874.877L176.033 874.891ZM161.184 865.16C161.256 865.234 161.335 865.285 161.41 865.307C161.309 865.277 161.2 865.196 161.112 865.075L161.184 865.16ZM151.803 863.347C152.659 863.39 153.545 863.447 154.419 863.486C153.253 863.434 152.068 863.35 150.958 863.309L151.803 863.347ZM147.757 856.038L147.796 856.035C147.772 856.042 147.744 856.039 147.712 856.024L147.757 856.038Z" fill="#78E846"/>
<path fill-rule="evenodd" clip-rule="evenodd" d="M438.674 888.234C433.574 887.887 427.899 888.951 422.927 887.756L422.448 887.634C422.486 886.579 422.41 885.509 422.432 884.45L422.448 883.997L422.452 883.695C422.447 883.392 422.424 883.085 422.448 882.785H438.674V888.234ZM437.433 887.288V883.997H437.427L437.433 887.288Z" fill="#78E846"/>
<path fill-rule="evenodd" clip-rule="evenodd" d="M694.458 818.542C695.739 817.291 698.31 818.172 700.066 817.943V836.123H686.341V848.849H672.623L672.478 848.874C672.119 848.903 671.62 848.748 671.375 848.849C671.061 848.981 670.932 849.043 670.864 849.158C670.934 849.05 671.065 848.989 671.369 848.862V862.793H658.891C660.675 861.296 668.043 862.642 670.75 862.194C670.759 862.185 670.767 862.172 670.775 862.155C670.769 862.166 670.764 862.174 670.757 862.181C668.05 862.635 660.681 861.291 658.897 862.781C658.367 863.224 658.461 863.509 658.274 863.993C658.272 864 658.269 864.006 658.267 864.012V875.52C654.424 875.156 649.801 875.992 646.071 875.543C645.459 875.47 644.611 875.75 644.542 874.913H657.65C657.65 874.911 657.65 874.909 657.65 874.907H644.548C643.444 868.229 646.476 869.478 652.035 869.453C652.159 865.836 651.847 862.159 652.034 858.542C652.032 858.543 652.031 858.544 652.029 858.545C652.048 858.145 651.998 857.733 652.029 857.333H665.125C665.128 857.331 665.132 857.329 665.136 857.327C665.326 857.226 665.642 856.919 665.753 856.731V842.789H680.102C680.05 842.943 680.007 843.053 679.962 843.134C680.009 843.052 680.055 842.938 680.109 842.777C680.845 840.583 679.697 833.922 680.09 830.929C680.171 830.311 680.097 830.251 680.733 830.051C680.738 830.053 680.743 830.054 680.748 830.056C683.42 829.229 690.572 830.676 693.818 830.064C693.823 830.059 693.829 830.056 693.833 830.051C695.341 828.593 694.013 821.021 694.456 818.548H699.442V818.542H694.458ZM666.372 843.395C665.824 846.939 667.4 853.847 665.762 856.717C667.417 853.856 665.83 846.943 666.375 843.391C666.374 843.392 666.373 843.393 666.372 843.395Z" fill="#78E846"/>
<path fill-rule="evenodd" clip-rule="evenodd" d="M166.666 830.063H180.39V842.789C185.08 843.153 190.373 842.079 194.924 843.273L195.363 843.395C195.913 843.929 194.8 854.723 195.308 857.127L195.363 857.333L196.093 857.386C199.786 857.586 204.062 856.883 207.559 857.315C208.195 857.393 208.257 857.321 208.462 857.938L208.463 857.939C208.849 859.081 208.469 863.376 208.46 865.437L208.463 865.818C208.488 866.787 208.326 867.95 208.463 868.847L208.47 868.931C208.474 869.127 208.409 869.337 208.463 869.453C208.96 870.507 212.18 870.053 214.186 870.001L214.622 869.997C212.691 869.973 208.998 870.583 208.463 869.453H215.957V875.514H202.855V862.787H189.13V849.457C189.129 849.456 189.126 849.456 189.125 849.455C188.912 849.286 188.669 848.904 188.5 848.849C188.489 848.845 188.477 848.842 188.465 848.838C184.375 848.336 178.599 849.544 174.782 848.843L174.158 848.237C173.794 846.356 174.579 836.789 174.172 836.138C174.16 836.136 174.15 836.134 174.145 836.129L174.151 836.123H161.05V817.943H166.666V830.063ZM207.606 865.862C207.568 865.888 207.532 865.917 207.498 865.948L207.606 865.862C207.643 865.837 207.682 865.816 207.723 865.797L207.606 865.862ZM207.99 865.729C208.085 865.722 208.188 865.731 208.296 865.76L208.138 865.731C208.087 865.726 208.038 865.725 207.99 865.729ZM202.597 862.218C202.618 862.234 202.642 862.255 202.67 862.279C202.601 862.22 202.553 862.182 202.538 862.181L202.597 862.218ZM179.202 833.044C178.911 836.28 177.711 840.801 179.168 842.51C177.656 840.73 179.015 835.903 179.233 832.652L179.202 833.044ZM162.661 835.021C162.777 835.028 162.895 835.034 163.015 835.038L162.661 835.021C162.544 835.013 162.43 835.004 162.318 834.993L162.661 835.021Z" fill="#78E846"/>
<path d="M408.099 869.453C408.08 869.653 408.118 869.86 408.099 870.06L407.488 869.756L408.099 869.453Z" fill="#78E846"/>
<path fill-rule="evenodd" clip-rule="evenodd" d="M181.027 862.793H174.145V855.503H181.027V862.793ZM180.386 862.189L175.398 862.194L175.399 862.199H180.403L180.396 856.103H180.378L180.386 862.189Z" fill="#78E846"/>
<path d="M686.347 862.793H680.09V855.503H686.347V862.793Z" fill="#78E846"/>
<path fill-rule="evenodd" clip-rule="evenodd" d="M152.94 427.672H161.05L161.038 104.415L166.666 104.064V445.853H152.94C153.52 449.368 151.917 467.876 153.564 469.488H166.666V811.277L161.038 810.925L161.05 487.667L160.887 487.62C159.119 487.174 154.94 488.055 152.94 487.667V836.122H146.702V481.608H161.05V475.547H146.702V441.005H160.426V434.338H146.702V80.4289H152.94V427.672ZM153.489 445.267C153.184 445.307 152.958 445.388 152.94 445.747C152.964 445.261 153.377 445.286 153.845 445.229L153.489 445.267Z" fill="#78E846"/>
<path fill-rule="evenodd" clip-rule="evenodd" d="M714.415 433.733H700.066V441.005H714.415V475.547H700.066C700.415 477.304 699.586 480.777 700.066 482.213H710.047C711.208 481.989 712.643 481.093 714.415 481.608V836.122H708.176V487.667H700.066V810.974C698.615 810.498 695.063 811.114 694.497 810.161L694.452 810.065V470.093C694.421 469.499 694.857 469.53 695.356 469.469C699.274 468.984 704.14 469.857 708.176 469.488V445.853H695.075L694.452 104.669L694.499 104.574C695.126 103.633 700 103.91 700.079 104.415L700.066 428.279C701.85 430.012 705.793 427.739 708.176 428.279V80.4289H714.415V433.733ZM709.658 482.363C709.311 482.531 708.828 482.781 707.926 482.862C708.83 482.785 709.311 482.533 709.658 482.363ZM704.979 470.258C704.716 470.262 704.451 470.262 704.183 470.26C704.718 470.264 705.245 470.258 705.761 470.235L704.979 470.258ZM708.176 469.591C708.152 470.077 707.74 470.055 707.272 470.112L707.627 470.072C707.932 470.033 708.159 469.951 708.176 469.591Z" fill="#78E846"/>
<path d="M694.458 818.536C694.457 818.54 694.456 818.544 694.456 818.548H694.451V818.542H694.455L694.458 818.536Z" fill="#78E846"/>
<path fill-rule="evenodd" clip-rule="evenodd" d="M700.097 461.627L694.439 461.639V461.009L694.42 453.737H695.075V453.734C695.073 453.731 695.07 453.728 695.069 453.725L695.075 453.731L700.079 453.719L700.097 461.627ZM695.227 453.944C696.131 454.881 699.104 454.037 699.444 454.334C699.443 454.333 699.443 454.331 699.442 454.33C699.125 454.024 696.134 454.878 695.222 453.938L695.227 453.944Z" fill="#78E846"/>
<path fill-rule="evenodd" clip-rule="evenodd" d="M166.671 461.621H161.038V453.719H166.671V461.621ZM166.035 461.007L161.673 461.011L161.674 461.015H166.054L166.047 454.319H166.028L166.035 461.007ZM161.668 454.321L164.276 454.319H161.668V454.321Z" fill="#78E846"/>
<path fill-rule="evenodd" clip-rule="evenodd" d="M658.261 52.5383C658.263 52.543 658.265 52.5482 658.267 52.5529C658.348 52.7407 658.174 53.0613 658.267 53.1584H671.999V66.4904C671.526 66.3404 671.446 66.2691 671.402 65.9816L671.356 65.6125C671.437 66.2302 671.362 66.2905 671.999 66.4904C674.12 67.1631 682.548 66.2905 685.723 66.4904C685.933 66.5018 686.137 66.4784 686.341 66.4904L686.953 66.8C686.935 66.9418 686.414 67.0095 686.348 67.0822L686.341 67.0969C686.167 71.1147 686.504 75.1992 686.341 79.217C686.327 79.5619 686.446 80.4356 686.161 80.4514C686.454 80.4482 686.333 79.5644 686.347 79.217C686.852 79.4291 686.84 80.3077 686.971 80.4289H700.072C699.573 85.483 700.733 91.6101 700.084 96.5188C700.004 97.1265 700.077 97.1959 699.455 97.3928V97.3977C698.344 97.7491 695.824 97.1492 694.458 97.3977C694.32 93.5798 694.651 89.695 694.458 85.8772C694.439 85.4773 694.489 85.0651 694.458 84.6652H681.974C681.668 83.1384 682.398 75.5169 681.974 74.9631C681.868 74.8237 680.864 75.1023 680.726 74.9631C680.657 74.8964 680.383 73.7871 680.102 73.1447C680.094 73.1266 680.088 73.1067 680.084 73.0852L680.08 73.0275C680.08 73.0765 680.086 73.1201 680.102 73.1564C675.542 72.9323 670.807 73.7387 666.377 72.551V59.5217C666.377 59.4551 665.513 58.6149 665.442 58.6125H652.653C652.26 54.607 653.183 49.7653 652.653 45.8869C653.121 47.0908 653.307 48.3906 653.362 49.7307C653.308 48.3861 653.123 47.0819 652.653 45.8742C652.622 45.6563 652.715 45.4022 652.653 45.2688V45.2805C652.382 44.7127 651.325 44.583 650.093 44.592C651.322 44.5834 652.376 44.7136 652.646 45.2805H644.536V39.8264H658.261V52.5383ZM687.586 80.7756C689.93 81.6322 696.25 80.7362 699.02 80.9777C696.264 80.7282 689.938 81.6254 687.586 80.7756ZM679.709 71.9084C676.559 71.1751 670.526 72.5024 667.001 71.9328V71.9445C670.526 72.5141 676.559 71.1818 679.709 71.9211C680.047 72.0005 680.139 72.1903 680.147 72.4035C680.142 72.1838 680.055 71.9869 679.709 71.9084ZM653.223 57.2707C653.235 57.5184 653.252 57.7642 653.276 58.007H665.442C665.556 58.0096 667.001 59.4127 667.001 59.5217V59.51C667.001 59.401 665.556 57.9965 665.442 57.9943H653.276C653.253 57.7518 653.235 57.5065 653.223 57.259V57.2707ZM658.426 53.2883C659.088 53.7364 660.591 53.871 662.369 53.8781C660.512 53.8705 658.954 53.724 658.341 53.2258L658.426 53.2883ZM669.317 53.6652C670.166 53.6546 670.882 53.6761 671.375 53.759L671.111 53.7219C670.641 53.6692 670.025 53.6563 669.317 53.6652ZM646.105 44.7209C646.224 44.73 646.353 44.7339 646.492 44.7355C646.284 44.733 646.097 44.7244 645.936 44.7043L646.105 44.7209Z" fill="#78E846"/>
<path fill-rule="evenodd" clip-rule="evenodd" d="M215.95 45.2863H209.087C211.308 44.5773 212.844 44.5231 215.327 44.6867V44.6809L214.436 44.6301C212.449 44.5406 211.031 44.6601 209.087 45.2805C208.894 45.3414 208.688 45.7415 208.463 45.8869L208.441 46.5266C208.353 49.7339 208.668 53.0013 208.463 56.1887C208.204 56.2262 207.994 56.2405 207.824 56.2365C207.995 56.241 208.208 56.2268 208.47 56.1887C208.433 56.728 208.601 57.6677 208.47 58.007C208.468 58.0075 208.465 58.0066 208.462 58.007C208.232 58.6 208.22 58.5463 207.559 58.6311C204.018 59.0731 199.641 58.2797 195.993 58.6115C194.483 60.0782 195.862 70.3938 195.375 73.1633C190.41 73.333 185.362 72.9269 180.396 73.1633C180.394 73.1634 180.391 73.1632 180.389 73.1633C179.93 76.3628 181.026 81.1153 180.39 84.0647L180.375 84.1125C180.296 84.3149 180.011 84.4582 179.837 84.6037L179.766 84.6711C177.614 87.1011 169.934 85.3681 166.659 85.8772C166.272 86.2556 166.908 94.7919 166.677 96.5188C166.597 97.1266 166.676 97.1958 166.047 97.3928C166.047 97.3983 166.048 97.4039 166.047 97.4094C165.691 97.5184 162.036 97.5184 161.68 97.4094V81.0412C162.086 80.6412 171.388 81.2891 173.253 81.0588C173.889 80.9801 173.952 81.0528 174.158 80.4348C174.794 78.5312 173.59 67.0419 174.158 66.4904C179.124 66.3208 184.17 66.7267 189.136 66.4904C189.548 66.4723 189.973 66.5207 190.384 66.4904V53.759C190.595 53.73 190.816 53.7073 191.044 53.6916C190.809 53.707 190.583 53.7296 190.366 53.759V66.4904C189.954 66.5207 189.536 66.4662 189.125 66.4904C189.626 63.0855 188.483 57.935 189.063 54.6799L189.125 54.3703L189.748 53.1584H202.225C201.761 53.4117 201.214 53.5825 200.61 53.6965C201.219 53.5832 201.77 53.4124 202.238 53.1584C202.431 53.0553 202.756 52.7408 202.862 52.5529H202.852C202.851 52.5548 202.85 52.5569 202.849 52.5588V39.8264H215.95V45.2863ZM199.915 57.8918C202.049 57.8805 204.589 58.0739 206.479 58.0979C204.588 58.0735 202.048 57.8801 199.915 57.8918Z" fill="#78E846"/>
<path d="M174.152 80.4289C173.946 81.041 173.883 80.9742 173.247 81.0529C171.381 81.2831 162.08 80.6355 161.668 81.0354V97.4035C161.038 97.2035 161.113 97.1367 161.032 96.5246C160.383 91.6159 161.544 85.483 161.044 80.4289H174.152Z" fill="#78E846"/>
<path d="M680.733 74.9787C680.89 75.0998 681.869 74.8313 681.974 74.9748C682.398 75.5205 681.662 83.1496 681.974 84.677H694.458C694.489 85.0769 694.433 85.4831 694.458 85.883C690.471 85.5679 685.879 86.3133 681.98 85.883L680.733 85.2775V74.9787Z" fill="#78E846"/>
<path d="M681.974 85.883C681.675 85.8466 681.356 85.9317 681.05 85.8772L680.726 85.2775L681.974 85.883Z" fill="#78E846"/>
<path d="M680.733 74.9787C680.731 74.9771 680.728 74.9765 680.726 74.9748H680.733V74.9787Z" fill="#78E846"/>
<path fill-rule="evenodd" clip-rule="evenodd" d="M665.772 27.7004C669.986 26.322 675.068 27.4752 679.485 27.0939C679.291 28.5908 679.753 30.5486 679.485 31.9484L679.476 31.9563C679.39 32.401 679.32 32.4683 678.862 32.552L678.861 32.5539C676.902 32.9114 674.095 32.3055 671.999 32.5539C672.017 32.1559 671.968 31.746 671.999 31.3479H671.992C671.961 31.7477 672.017 32.154 671.992 32.5539C671.873 34.9597 672.079 37.4204 671.992 39.8322C675.517 39.1474 683.452 40.7473 686.347 39.8322C686.977 39.6323 686.909 39.5714 686.99 38.9533C687.445 35.5113 686.622 31.2571 686.971 27.7121H713.167V27.7063H686.965C686.616 31.2513 687.433 35.5054 686.984 38.9475C686.903 39.5655 686.977 39.6265 686.341 39.8264V27.0998H714.415V52.5529H700.066V66.4904C699.897 66.4362 699.772 66.3742 699.678 66.3059C699.772 66.3768 699.899 66.4414 700.072 66.4973C701.039 66.8063 707.789 66.6846 708.182 65.8908L708.793 65.5881L708.784 65.5832L708.176 65.885C708.239 65.7577 708.145 65.4967 708.176 65.2785L708.182 65.2814C708.362 64.0276 708.139 62.3933 708.182 61.0432C709.061 59.0335 711.253 59.9851 713.167 59.8303V59.8244C711.251 59.9818 709.056 59.025 708.176 61.0363C708.195 60.4305 708.151 59.8187 708.176 59.2189H714.42C713.753 62.637 715.312 69.6604 714.42 72.551L714.414 72.5529C714.34 72.8006 714.413 73.0423 714.046 73.1027C713.556 73.2475 713.04 73.1266 712.549 73.1555C706.61 73.513 700.415 72.8959 694.451 73.1564C694.42 72.7566 694.476 72.3504 694.451 71.9445H694.458C694.053 63.8862 695.312 54.5325 694.489 46.7414C694.401 45.893 694.439 45.8742 693.833 45.2863C693.831 45.284 693.828 45.2819 693.826 45.2795C690.531 44.8983 666.227 46.0313 665.753 44.674C665.755 44.6743 665.757 44.6738 665.758 44.674C664.634 41.4438 666.602 31.7153 665.76 27.7121L665.753 27.7063H678.861V31.342H678.867V27.7004H665.772ZM691.956 39.8322C694.226 39.9049 696.547 39.7232 698.818 39.8322V39.8264C699.23 39.8446 699.654 39.7961 700.066 39.8264V47.0988C701.663 48.6559 706.086 47.2988 708.176 47.0988V32.5539H691.956V39.8322ZM699.387 44.1613C699.38 44.3305 699.376 44.4979 699.375 44.6623L699.387 44.1613C699.394 43.9917 699.403 43.8201 699.412 43.6477L699.387 44.1613Z" fill="#78E846"/>
<path fill-rule="evenodd" clip-rule="evenodd" d="M181.353 27.6008C185.502 26.3786 190.433 27.4537 194.739 27.0998C194.255 27.5301 192.99 27.7147 191.413 27.7736C192.992 27.7148 194.26 27.5303 194.746 27.0998C195.618 26.9549 195.338 28.1006 195.375 28.6096C195.544 30.7803 195.774 43.509 195.369 44.674H195.363C194.977 45.7779 178.827 45.2355 171.04 45.1994L167.289 45.2805C167.089 45.3286 166.821 45.2081 166.666 45.2805C166.19 45.5015 166.011 48.1421 165.963 51.6945C166.011 48.1451 166.19 45.5073 166.666 45.2863V73.1633C166.048 72.6786 165.493 73.1629 165.106 73.1633H146.702V59.2248H152.947V65.2844C152.945 65.283 152.943 65.2826 152.941 65.2814C153.009 65.373 152.665 66.3227 153.352 66.5031C153.914 66.6485 160.595 66.6359 161.05 66.4904C161.974 66.1935 161.619 65.6787 161.7 65.0061C161.728 64.7836 161.752 64.5554 161.774 64.3225C161.752 64.5533 161.728 64.7797 161.7 65.0002C161.612 65.6728 161.967 66.1876 161.05 66.4846V52.5529H146.702V27.0998H174.775V39.8264C174.363 39.8083 173.939 39.8566 173.528 39.8264C173.518 39.7725 173.51 39.7101 173.503 39.6398V39.6457C173.51 39.716 173.518 39.7783 173.528 39.8322C173.939 39.8625 174.357 39.8081 174.775 39.8322C179.529 40.0565 184.37 39.6626 189.13 39.8322V32.5539L181.014 32.5607V27.7063C181.064 27.6582 181.18 27.625 181.353 27.6008ZM166.13 68.3088C166.139 70.0177 166.12 71.3201 166.042 71.9445H147.95V71.9514H166.042C166.12 71.3263 166.139 70.021 166.13 68.3088ZM152.311 59.8371C151.697 61.2022 151.3 63.5076 151.686 64.8791C151.71 64.9658 151.748 65.0352 151.795 65.091C151.751 65.0364 151.716 64.9683 151.693 64.885C151.306 63.5094 151.705 61.1946 152.323 59.8371H152.311ZM169.785 32.5539H152.94V47.7043L161.057 47.0988C160.109 38.3966 162.017 39.6748 169.791 39.8264V32.5481L169.785 32.5539ZM147.95 27.7063H172.592C173.361 27.707 173.567 29.7939 173.589 32.2531C173.568 29.7913 173.361 27.7012 172.592 27.7004H147.95V27.7063Z" fill="#78E846"/>
<path d="M679.479 52.5529C688.443 51.644 687.108 53.4742 686.971 61.0432H679.479V52.5529Z" fill="#78E846"/>
<path fill-rule="evenodd" clip-rule="evenodd" d="M181.02 60.4367L174.132 60.4426V53.1525L181.02 53.1467V60.4367ZM180.396 59.2307H180.403V53.7522H180.396V59.2307Z" fill="#78E846"/>
<path fill-rule="evenodd" clip-rule="evenodd" d="M379.402 39.8234C379.404 39.8241 379.406 39.8257 379.408 39.8264C379.832 39.9597 387.718 39.9597 388.142 39.8264C388.772 39.6264 388.704 39.5655 388.785 38.9475C389.212 35.7206 388.514 31.7801 388.713 28.3791L388.766 27.7063H388.759C388.41 31.2513 389.227 35.5054 388.778 38.9475C388.697 39.5656 388.772 39.6264 388.135 39.8264V27.0998H414.337V39.2199C414.168 39.2052 413.462 39.8582 413.186 39.8664C413.465 39.8614 414.175 39.204 414.344 39.2199C414.451 39.2326 415.037 39.8146 415.86 39.8449C417.588 39.9055 427.04 39.4266 427.452 39.8205C427.694 40.0603 427.271 44.8632 427.452 45.8869C436.06 46.1414 432.417 44.8799 433.777 40.8137C434.607 38.3478 445.443 41.1289 447.415 39.2141C448.923 37.7487 447.592 30.1731 448.038 27.7063H448.026C447.577 30.1666 448.912 37.7524 447.403 39.2199V27.0998H472.981L472.357 39.8156C472.361 39.8169 472.365 39.8192 472.37 39.8205C473.298 40.1165 478.349 39.8939 479.843 39.8205V27.0998H658.267V32.5607H486.718L486.542 33.0256C485.745 35.3311 486.147 37.3156 486.088 39.8381H632.687C632.688 39.8341 632.688 39.8301 632.689 39.8264C633.962 40.2324 633.063 43.9836 633.313 45.2805H466.742V32.5568C464.068 31.7231 456.886 33.1839 453.647 32.5607C453.616 34.7725 453.703 37.0148 453.647 39.2326C453.645 39.2328 453.642 39.2324 453.64 39.2326C453.628 39.8345 453.66 40.4364 453.641 41.0383C453.353 41.0121 453.154 40.8372 453.043 40.6057C453.153 40.8433 453.354 41.0243 453.647 41.051C453.622 41.8568 453.672 42.669 453.647 43.4748C453.645 43.4786 453.642 43.4818 453.64 43.4855C453.623 44.084 453.672 44.6882 453.641 45.2805H439.312C439.308 45.2846 439.303 45.288 439.298 45.2922C437.795 46.7587 439.223 49.7529 438.674 51.3527H438.664C438.357 52.234 437.829 51.8926 437.14 51.9709C434.302 52.3103 426.179 52.3097 423.346 51.9582C422.71 51.8795 422.648 51.9523 422.442 51.3342H422.449C422.007 49.971 422.908 46.6375 422.455 45.2922C422.454 45.2902 422.453 45.2883 422.453 45.2863H408.099V32.5607C407.419 32.3426 394.43 32.3426 393.75 32.5607V45.2805H226.556C226.806 43.9837 225.907 40.2331 227.179 39.8264V39.8322H374.405C373.12 37.4993 374.523 34.6696 373.781 32.5607L373.787 32.5539H202.855L202.849 27.0998H379.402V39.8234ZM393.226 32.8381C393.152 32.9556 393.149 33.1257 393.108 33.4387C392.872 35.2444 393.532 44.2228 393.129 44.6809H393.132C393.544 44.2809 392.877 35.2448 393.114 33.4328C393.154 33.1251 393.156 32.9554 393.226 32.8381ZM467.099 32.6897C467.347 32.8198 467.324 32.9706 467.384 33.4328C467.84 36.8748 467.016 41.129 467.366 44.674H467.377C467.03 41.1302 467.846 36.8787 467.397 33.4387C467.335 32.9679 467.364 32.8215 467.099 32.6897ZM481.091 39.8205C481.095 39.8202 481.099 39.8208 481.103 39.8205V27.7063H481.091V39.8205Z" fill="#78E846"/>
<path d="M438.668 32.5539H422.448V27.0998H438.668V32.5539Z" fill="#78E846"/>
<path d="M665.753 27.7063L665.76 27.7004H665.772C665.766 27.7024 665.76 27.7042 665.753 27.7063Z" fill="#78E846"/>
</g>
</g>
<defs>
<filter id="filter0_dddd_19_3058" x="0.202881" y="0" width="861" height="1402" filterUnits="userSpaceOnUse" color-interpolation-filters="sRGB">
<feFlood flood-opacity="0" result="BackgroundImageFix"/>
<feColorMatrix in="SourceAlpha" type="matrix" values="0 0 0 0 0 0 0 0 0 0 0 0 0 0 0 0 0 0 127 0" result="hardAlpha"/>
<feOffset dy="23"/>
<feGaussianBlur stdDeviation="25"/>
<feColorMatrix type="matrix" values="0 0 0 0 0 0 0 0 0 0 0 0 0 0 0 0 0 0 0.26 0"/>
<feBlend mode="normal" in2="BackgroundImageFix" result="effect1_dropShadow_19_3058"/>
<feColorMatrix in="SourceAlpha" type="matrix" values="0 0 0 0 0 0 0 0 0 0 0 0 0 0 0 0 0 0 127 0" result="hardAlpha"/>
<feOffset dy="92"/>
<feGaussianBlur stdDeviation="46"/>
<feColorMatrix type="matrix" values="0 0 0 0 0 0 0 0 0 0 0 0 0 0 0 0 0 0 0.22 0"/>
<feBlend mode="normal" in2="effect1_dropShadow_19_3058" result="effect2_dropShadow_19_3058"/>
<feColorMatrix in="SourceAlpha" type="matrix" values="0 0 0 0 0 0 0 0 0 0 0 0 0 0 0 0 0 0 127 0" result="hardAlpha"/>
<feOffset dy="206"/>
<feGaussianBlur stdDeviation="62"/>
<feColorMatrix type="matrix" values="0 0 0 0 0 0 0 0 0 0 0 0 0 0 0 0 0 0 0.13 0"/>
<feBlend mode="normal" in2="effect2_dropShadow_19_3058" result="effect3_dropShadow_19_3058"/>
<feColorMatrix in="SourceAlpha" type="matrix" values="0 0 0 0 0 0 0 0 0 0 0 0 0 0 0 0 0 0 127 0" result="hardAlpha"/>
<feOffset dy="366"/>
<feGaussianBlur stdDeviation="73.5"/>
<feColorMatrix type="matrix" values="0 0 0 0 0 0 0 0 0 0 0 0 0 0 0 0 0 0 0.04 0"/>
<feBlend mode="normal" in2="effect3_dropShadow_19_3058" result="effect4_dropShadow_19_3058"/>
<feBlend mode="normal" in="SourceGraphic" in2="effect4_dropShadow_19_3058" result="shape"/>
</filter>
<clipPath id="clip0_19_3058">
<rect x="147.203" y="27" width="567" height="862" rx="10" fill="white"/>
</clipPath>
<clipPath id="clip1_19_3058">
<rect width="37" height="37" fill="white" transform="translate(302.206 373.068)"/>
</clipPath>
<clipPath id="clip2_19_3058">
<rect width="46.6813" height="46.6813" fill="white" transform="translate(297.862 503.728)"/>
</clipPath>
</defs>
</svg>
